LisuBosaMaster-Black.ufo
<glyph name="exclam" format="2">
  <advance width="290"/>
  <unicode hex="0021"/>
  <outline>
    <contour>
      <point x="146" y="-8" type="curve" smooth="yes"/>
      <point x="189" y="-8"/>
      <point x="223" y="25"/>
      <point x="223" y="67" type="curve" smooth="yes"/>
      <point x="223" y="109"/>
      <point x="189" y="144"/>
      <point x="146" y="144" type="curve" smooth="yes"/>
      <point x="102" y="144"/>
      <point x="68" y="109"/>
      <point x="68" y="67" type="curve" smooth="yes"/>
      <point x="68" y="25"/>
      <point x="102" y="-8"/>
    </contour>
    <contour>
      <point x="195" y="207" type="line"/>
      <point x="216" y="562" type="line"/>
      <point x="72" y="562" type="line"/>
      <point x="94" y="207" type="line"/>
    </contour>
  </outline>
</glyph>
<glyph name="quotedbl" format="2">
  <advance width="355"/>
  <unicode hex="0022"/>
  <outline>
    <contour>
      <point x="45" y="582" type="line"/>
      <point x="155" y="582" type="line"/>
      <point x="139" y="369" type="line"/>
      <point x="61" y="369" type="line"/>
    </contour>
    <contour>
      <point x="199" y="582" type="line"/>
      <point x="310" y="582" type="line"/>
      <point x="293" y="369" type="line"/>
      <point x="215" y="369" type="line"/>
    </contour>
  </outline>
</glyph>
<glyph name="numbersign" format="2">
  <advance width="436"/>
  <unicode hex="0023"/>
  <outline>
    <contour>
      <point x="266" y="215" type="line"/>
      <point x="287" y="328" type="line"/>
      <point x="174" y="328" type="line"/>
      <point x="153" y="215" type="line"/>
    </contour>
    <contour>
      <point x="423" y="215" type="line"/>
      <point x="423" y="145" type="line"/>
      <point x="323" y="145" type="line"/>
      <point x="295" y="-4" type="line"/>
      <point x="225" y="-4" type="line"/>
      <point x="253" y="145" type="line"/>
      <point x="139" y="145" type="line"/>
      <point x="112" y="-4" type="line"/>
      <point x="41" y="-4" type="line"/>
      <point x="70" y="145" type="line"/>
      <point x="13" y="145" type="line"/>
      <point x="13" y="215" type="line"/>
      <point x="83" y="215" type="line"/>
      <point x="104" y="328" type="line"/>
      <point x="13" y="328" type="line"/>
      <point x="13" y="397" type="line"/>
      <point x="115" y="397" type="line"/>
      <point x="143" y="542" type="line"/>
      <point x="213" y="542" type="line"/>
      <point x="185" y="397" type="line"/>
      <point x="299" y="397" type="line"/>
      <point x="327" y="542" type="line"/>
      <point x="397" y="542" type="line"/>
      <point x="369" y="397" type="line"/>
      <point x="423" y="397" type="line"/>
      <point x="423" y="328" type="line"/>
      <point x="357" y="328" type="line"/>
      <point x="337" y="215" type="line"/>
    </contour>
  </outline>
</glyph>
<glyph name="dollar" format="2">
  <advance width="485"/>
  <unicode hex="0024"/>
  <outline>
    <contour>
      <point x="233" y="34" type="curve" smooth="yes"/>
      <point x="185" y="34"/>
      <point x="151" y="41"/>
      <point x="108" y="60" type="curve"/>
      <point x="173" y="20" type="line"/>
      <point x="159" y="95" type="line" smooth="yes"/>
      <point x="149" y="143"/>
      <point x="128" y="158"/>
      <point x="98" y="158" type="curve" smooth="yes"/>
      <point x="76" y="158"/>
      <point x="57" y="146"/>
      <point x="46" y="119" type="curve"/>
      <point x="48" y="38"/>
      <point x="118" y="-12"/>
      <point x="231" y="-12" type="curve" smooth="yes"/>
      <point x="368" y="-12"/>
      <point x="452" y="60"/>
      <point x="452" y="163" type="curve" smooth="yes"/>
      <point x="452" y="246"/>
      <point x="406" y="307"/>
      <point x="279" y="349" type="curve" smooth="yes"/>
      <point x="246" y="359" type="line" smooth="yes"/>
      <point x="181" y="380"/>
      <point x="151" y="407"/>
      <point x="151" y="460" type="curve" smooth="yes"/>
      <point x="151" y="522"/>
      <point x="198" y="550"/>
      <point x="264" y="550" type="curve" smooth="yes"/>
      <point x="297" y="550"/>
      <point x="326" y="546"/>
      <point x="369" y="527" type="curve"/>
      <point x="306" y="565" type="line"/>
      <point x="319" y="499" type="line" smooth="yes"/>
      <point x="329" y="441"/>
      <point x="357" y="428"/>
      <point x="386" y="428" type="curve" smooth="yes"/>
      <point x="406" y="428"/>
      <point x="427" y="439"/>
      <point x="434" y="468" type="curve"/>
      <point x="426" y="548"/>
      <point x="356" y="598"/>
      <point x="253" y="598" type="curve" smooth="yes"/>
      <point x="128" y="598"/>
      <point x="50" y="524"/>
      <point x="50" y="425" type="curve" smooth="yes"/>
      <point x="50" y="335"/>
      <point x="110" y="279"/>
      <point x="214" y="244" type="curve" smooth="yes"/>
      <point x="245" y="233" type="line" smooth="yes"/>
      <point x="322" y="207"/>
      <point x="348" y="184"/>
      <point x="348" y="130" type="curve" smooth="yes"/>
      <point x="348" y="70"/>
      <point x="304" y="34"/>
    </contour>
    <contour>
      <point x="276" y="292" type="line"/>
      <point x="276" y="681" type="line"/>
      <point x="226" y="681" type="line"/>
      <point x="226" y="292" type="line"/>
    </contour>
    <contour>
      <point x="222" y="-105" type="line"/>
      <point x="273" y="-105" type="line"/>
      <point x="273" y="292" type="line"/>
      <point x="222" y="292" type="line"/>
    </contour>
  </outline>
</glyph>
<glyph name="percent" format="2">
  <advance width="800"/>
  <unicode hex="0025"/>
  <outline>
    <contour>
      <point x="216" y="-27" type="line"/>
      <point x="632" y="582" type="line"/>
      <point x="594" y="609" type="line"/>
      <point x="177" y="0" type="line"/>
    </contour>
    <contour>
      <point x="138" y="408" type="curve" smooth="yes"/>
      <point x="138" y="538"/>
      <point x="161" y="566"/>
      <point x="190" y="566" type="curve" smooth="yes"/>
      <point x="218" y="566"/>
      <point x="242" y="537"/>
      <point x="242" y="408" type="curve" smooth="yes"/>
      <point x="242" y="280"/>
      <point x="218" y="251"/>
      <point x="190" y="251" type="curve" smooth="yes"/>
      <point x="161" y="251"/>
      <point x="138" y="279"/>
    </contour>
    <contour>
      <point x="190" y="598" type="curve" smooth="yes"/>
      <point x="118" y="598"/>
      <point x="53" y="540"/>
      <point x="53" y="408" type="curve" smooth="yes"/>
      <point x="53" y="278"/>
      <point x="118" y="220"/>
      <point x="190" y="220" type="curve" smooth="yes"/>
      <point x="261" y="220"/>
      <point x="327" y="278"/>
      <point x="327" y="408" type="curve" smooth="yes"/>
      <point x="327" y="540"/>
      <point x="261" y="598"/>
    </contour>
    <contour>
      <point x="557" y="179" type="curve" smooth="yes"/>
      <point x="557" y="310"/>
      <point x="581" y="338"/>
      <point x="609" y="338" type="curve" smooth="yes"/>
      <point x="638" y="338"/>
      <point x="662" y="309"/>
      <point x="662" y="179" type="curve" smooth="yes"/>
      <point x="662" y="51"/>
      <point x="638" y="22"/>
      <point x="609" y="22" type="curve" smooth="yes"/>
      <point x="581" y="22"/>
      <point x="557" y="50"/>
    </contour>
    <contour>
      <point x="609" y="369" type="curve" smooth="yes"/>
      <point x="538" y="369"/>
      <point x="473" y="311"/>
      <point x="473" y="179" type="curve" smooth="yes"/>
      <point x="473" y="49"/>
      <point x="538" y="-8"/>
      <point x="609" y="-8" type="curve" smooth="yes"/>
      <point x="680" y="-8"/>
      <point x="746" y="49"/>
      <point x="746" y="179" type="curve" smooth="yes"/>
      <point x="746" y="311"/>
      <point x="680" y="369"/>
    </contour>
  </outline>
</glyph>
<glyph name="ampersand" format="2">
  <advance width="662"/>
  <unicode hex="0026"/>
  <outline>
    <contour>
      <point x="277" y="187" type="curve" smooth="yes"/>
      <point x="318" y="139"/>
      <point x="361" y="86"/>
      <point x="416" y="33" type="curve" smooth="yes"/>
      <point x="454" y="-1"/>
      <point x="490" y="-12"/>
      <point x="542" y="-12" type="curve" smooth="yes"/>
      <point x="568" y="-12"/>
      <point x="588" y="-10"/>
      <point x="626" y="-1" type="curve"/>
      <point x="632" y="55" type="line"/>
      <point x="502" y="79" type="line"/>
      <point x="563" y="49" type="line"/>
      <point x="478" y="140"/>
      <point x="433" y="186"/>
      <point x="352" y="274" type="curve" smooth="yes"/>
      <point x="279" y="354"/>
      <point x="254" y="380"/>
      <point x="230" y="414" type="curve" smooth="yes"/>
      <point x="202" y="452"/>
      <point x="195" y="481"/>
      <point x="195" y="508" type="curve" smooth="yes"/>
      <point x="195" y="552"/>
      <point x="224" y="584"/>
      <point x="264" y="584" type="curve" smooth="yes"/>
      <point x="305" y="584"/>
      <point x="331" y="555"/>
      <point x="331" y="510" type="curve" smooth="yes"/>
      <point x="331" y="462"/>
      <point x="301" y="414"/>
      <point x="245" y="366" type="curve"/>
      <point x="265" y="344" type="line"/>
      <point x="371" y="391"/>
      <point x="418" y="436"/>
      <point x="418" y="501" type="curve" smooth="yes"/>
      <point x="418" y="573"/>
      <point x="364" y="621"/>
      <point x="265" y="621" type="curve" smooth="yes"/>
      <point x="167" y="621"/>
      <point x="100" y="565"/>
      <point x="100" y="479" type="curve" smooth="yes"/>
      <point x="100" y="433"/>
      <point x="114" y="386"/>
      <point x="157" y="333" type="curve" smooth="yes"/>
      <point x="187" y="298"/>
      <point x="217" y="261"/>
    </contour>
    <contour>
      <point x="418" y="135" type="curve"/>
      <point x="449" y="113" type="line"/>
      <point x="510" y="193"/>
      <point x="546" y="261"/>
      <point x="574" y="365" type="curve"/>
      <point x="511" y="365" type="line"/>
      <point x="494" y="271"/>
      <point x="469" y="209"/>
    </contour>
    <contour>
      <point x="209" y="318" type="curve"/>
      <point x="194" y="342" type="line"/>
      <point x="74" y="296"/>
      <point x="22" y="231"/>
      <point x="22" y="150" type="curve" smooth="yes"/>
      <point x="22" y="61"/>
      <point x="92" y="-12"/>
      <point x="212" y="-12" type="curve" smooth="yes"/>
      <point x="323" y="-12"/>
      <point x="383" y="36"/>
      <point x="416" y="87" type="curve"/>
      <point x="390" y="113" type="line"/>
      <point x="362" y="78"/>
      <point x="316" y="57"/>
      <point x="263" y="57" type="curve" smooth="yes"/>
      <point x="185" y="57"/>
      <point x="132" y="113"/>
      <point x="132" y="184" type="curve" smooth="yes"/>
      <point x="132" y="233"/>
      <point x="151" y="283"/>
    </contour>
    <contour>
      <point x="545" y="338" type="line"/>
      <point x="633" y="353" type="line"/>
      <point x="633" y="392" type="line"/>
      <point x="436" y="392" type="line"/>
      <point x="436" y="353" type="line"/>
      <point x="526" y="338" type="line"/>
    </contour>
  </outline>
</glyph>
<glyph name="quotesingle" format="2">
  <advance width="216"/>
  <unicode hex="0027"/>
  <outline>
    <contour>
      <point x="50" y="582" type="line"/>
      <point x="166" y="582" type="line"/>
      <point x="148" y="349" type="line"/>
      <point x="67" y="349" type="line"/>
    </contour>
  </outline>
</glyph>
<glyph name="parenleft" format="2">
  <advance width="293"/>
  <unicode hex="0028"/>
  <outline>
    <contour>
      <point x="262" y="-67" type="curve"/>
      <point x="262" y="-162" type="line"/>
      <point x="91" y="-71"/>
      <point x="16" y="47"/>
      <point x="16" y="258" type="curve" smooth="yes"/>
      <point x="16" y="467"/>
      <point x="91" y="589"/>
      <point x="262" y="677" type="curve"/>
      <point x="262" y="582" type="line"/>
      <point x="138" y="512"/>
      <point x="133" y="415"/>
      <point x="133" y="258" type="curve" smooth="yes"/>
      <point x="133" y="100"/>
      <point x="138" y="3"/>
    </contour>
  </outline>
</glyph>
<glyph name="parenright" format="2">
  <advance width="289"/>
  <unicode hex="0029"/>
  <outline>
    <contour>
      <point x="273" y="258" type="curve" smooth="yes"/>
      <point x="273" y="469"/>
      <point x="200" y="586"/>
      <point x="29" y="677" type="curve"/>
      <point x="29" y="582" type="line"/>
      <point x="153" y="512"/>
      <point x="163" y="415"/>
      <point x="163" y="258" type="curve" smooth="yes"/>
      <point x="163" y="100"/>
      <point x="153" y="3"/>
      <point x="29" y="-67" type="curve"/>
      <point x="29" y="-162" type="line"/>
      <point x="200" y="-71"/>
      <point x="273" y="47"/>
    </contour>
  </outline>
</glyph>
<glyph name="asterisk" format="2">
  <advance width="410"/>
  <unicode hex="002A"/>
  <outline>
    <contour>
      <point x="213" y="390" type="line"/>
      <point x="213" y="381" type="line"/>
      <point x="372" y="414" type="line"/>
      <point x="333" y="498" type="line"/>
      <point x="188" y="391" type="line"/>
      <point x="217" y="373" type="line"/>
      <point x="253" y="542" type="line"/>
      <point x="159" y="542" type="line"/>
      <point x="193" y="373" type="line"/>
      <point x="221" y="390" type="line"/>
      <point x="78" y="502" type="line"/>
      <point x="39" y="414" type="line"/>
      <point x="197" y="381" type="line"/>
      <point x="197" y="391" type="line"/>
      <point x="39" y="359" type="line"/>
      <point x="77" y="273" type="line"/>
      <point x="221" y="384" type="line"/>
      <point x="193" y="401" type="line"/>
      <point x="159" y="231" type="line"/>
      <point x="253" y="231" type="line"/>
      <point x="217" y="400" type="line"/>
      <point x="188" y="382" type="line"/>
      <point x="333" y="276" type="line"/>
      <point x="372" y="360" type="line"/>
    </contour>
  </outline>
</glyph>
<glyph name="plus" format="2">
  <advance width="462"/>
  <unicode hex="002B"/>
  <outline>
    <contour>
      <point x="427" y="313" type="line"/>
      <point x="427" y="232" type="line"/>
      <point x="272" y="232" type="line"/>
      <point x="272" y="76" type="line"/>
      <point x="191" y="76" type="line"/>
      <point x="191" y="232" type="line"/>
      <point x="36" y="232" type="line"/>
      <point x="36" y="313" type="line"/>
      <point x="191" y="313" type="line"/>
      <point x="191" y="468" type="line"/>
      <point x="272" y="468" type="line"/>
      <point x="272" y="313" type="line"/>
    </contour>
  </outline>
</glyph>
<glyph name="comma" format="2">
  <advance width="250"/>
  <unicode hex="002C"/>
  <outline>
    <contour>
      <point x="45" y="-150" type="line"/>
      <point x="141" y="-130"/>
      <point x="204" y="-42"/>
      <point x="204" y="34" type="curve" smooth="yes"/>
      <point x="204" y="97"/>
      <point x="168" y="132"/>
      <point x="120" y="132" type="curve" smooth="yes"/>
      <point x="80" y="132"/>
      <point x="46" y="98"/>
      <point x="46" y="58" type="curve" smooth="yes"/>
      <point x="46" y="21"/>
      <point x="68" y="-8"/>
      <point x="104" y="-8" type="curve" smooth="yes"/>
      <point x="127" y="-8"/>
      <point x="144" y="10"/>
      <point x="144" y="33" type="curve"/>
      <point x="139" y="33"/>
      <point x="127" y="33"/>
      <point x="120" y="33" type="curve"/>
      <point x="124" y="24"/>
      <point x="124" y="11"/>
      <point x="124" y="-15" type="curve" smooth="yes"/>
      <point x="124" y="-52"/>
      <point x="90" y="-95"/>
      <point x="36" y="-108" type="curve"/>
    </contour>
  </outline>
</glyph>
<glyph name="hyphen" format="2">
  <advance width="398"/>
  <unicode hex="002D"/>
  <outline>
    <contour>
      <point x="60" y="207" type="line"/>
      <point x="338" y="207" type="line"/>
      <point x="338" y="293" type="line"/>
      <point x="60" y="293" type="line"/>
    </contour>
  </outline>
</glyph>
<glyph name="period" format="2">
  <advance width="202"/>
  <unicode hex="002E"/>
  <outline>
    <contour>
      <point x="103" y="-8" type="curve" smooth="yes"/>
      <point x="142" y="-8"/>
      <point x="174" y="21"/>
      <point x="174" y="60" type="curve" smooth="yes"/>
      <point x="174" y="102"/>
      <point x="142" y="129"/>
      <point x="103" y="129" type="curve" smooth="yes"/>
      <point x="61" y="129"/>
      <point x="30" y="102"/>
      <point x="30" y="60" type="curve" smooth="yes"/>
      <point x="30" y="21"/>
      <point x="61" y="-8"/>
    </contour>
  </outline>
</glyph>
<glyph name="slash" format="2">
  <advance width="310"/>
  <unicode hex="002F"/>
  <outline>
    <contour>
      <point x="242" y="650" type="line"/>
      <point x="328" y="650" type="line"/>
      <point x="69" y="-100" type="line"/>
      <point x="-18" y="-100" type="line"/>
    </contour>
  </outline>
</glyph>
<glyph name="zero" format="2">
  <advance width="450"/>
  <unicode hex="0030"/>
  <outline>
    <contour>
      <point x="226" y="-8" type="curve" smooth="yes"/>
      <point x="362" y="-8"/>
      <point x="413" y="116"/>
      <point x="413" y="266" type="curve" smooth="yes"/>
      <point x="413" y="419"/>
      <point x="362" y="538"/>
      <point x="225" y="538" type="curve" smooth="yes"/>
      <point x="89" y="538"/>
      <point x="38" y="413"/>
      <point x="38" y="265" type="curve" smooth="yes"/>
      <point x="38" y="120"/>
      <point x="87" y="-8"/>
    </contour>
    <contour>
      <point x="225" y="72" type="curve" smooth="yes"/>
      <point x="177" y="72"/>
      <point x="145" y="130"/>
      <point x="145" y="265" type="curve" smooth="yes"/>
      <point x="145" y="400"/>
      <point x="176" y="458"/>
      <point x="224" y="458" type="curve" smooth="yes"/>
      <point x="274" y="458"/>
      <point x="306" y="400"/>
      <point x="306" y="265" type="curve" smooth="yes"/>
      <point x="306" y="130"/>
      <point x="274" y="72"/>
    </contour>
  </outline>
</glyph>
<glyph name="one" format="2">
  <advance width="450"/>
  <unicode hex="0031"/>
  <outline>
    <contour>
      <point x="313" y="0" type="line"/>
      <point x="207" y="0" type="line"/>
      <point x="207" y="374" type="line"/>
      <point x="168" y="341"/>
      <point x="133" y="323"/>
      <point x="92" y="311" type="curve"/>
      <point x="92" y="404" type="line"/>
      <point x="151" y="429"/>
      <point x="207" y="478"/>
      <point x="229" y="531" type="curve"/>
      <point x="313" y="531" type="line"/>
    </contour>
  </outline>
</glyph>
<glyph name="two" format="2">
  <advance width="450"/>
  <unicode hex="0032"/>
  <outline>
    <contour>
      <point x="403" y="0" type="line"/>
      <point x="47" y="0" type="line"/>
      <point x="47" y="62" type="line" smooth="yes"/>
      <point x="47" y="89"/>
      <point x="65" y="114"/>
      <point x="112" y="155" type="curve" smooth="yes"/>
      <point x="141" y="180"/>
      <point x="183" y="217"/>
      <point x="240" y="268" type="curve" smooth="yes"/>
      <point x="288" y="311"/>
      <point x="300" y="341"/>
      <point x="300" y="388" type="curve" smooth="yes"/>
      <point x="300" y="432"/>
      <point x="268" y="458"/>
      <point x="228" y="458" type="curve" smooth="yes"/>
      <point x="187" y="458"/>
      <point x="154" y="428"/>
      <point x="149" y="374" type="curve"/>
      <point x="51" y="383" type="line"/>
      <point x="60" y="478"/>
      <point x="138" y="538"/>
      <point x="234" y="538" type="curve" smooth="yes"/>
      <point x="329" y="538"/>
      <point x="407" y="481"/>
      <point x="407" y="392" type="curve" smooth="yes"/>
      <point x="407" y="345"/>
      <point x="394" y="296"/>
      <point x="351" y="253" type="curve" smooth="yes"/>
      <point x="333" y="235"/>
      <point x="297" y="201"/>
      <point x="238" y="146" type="curve" smooth="yes"/>
      <point x="214" y="123"/>
      <point x="196" y="108"/>
      <point x="177" y="90" type="curve"/>
      <point x="403" y="90" type="line"/>
    </contour>
  </outline>
</glyph>
<glyph name="three" format="2">
  <advance width="450"/>
  <unicode hex="0033"/>
  <outline>
    <contour>
      <point x="407" y="163" type="curve" smooth="yes"/>
      <point x="407" y="67"/>
      <point x="327" y="-7"/>
      <point x="221" y="-7" type="curve" smooth="yes"/>
      <point x="116" y="-7"/>
      <point x="56" y="55"/>
      <point x="47" y="150" type="curve"/>
      <point x="147" y="165" type="line"/>
      <point x="150" y="110"/>
      <point x="175" y="72"/>
      <point x="221" y="72" type="curve" smooth="yes"/>
      <point x="263" y="72"/>
      <point x="300" y="108"/>
      <point x="300" y="160" type="curve" smooth="yes"/>
      <point x="300" y="212"/>
      <point x="258" y="242"/>
      <point x="225" y="242" type="curve" smooth="yes"/>
      <point x="219" y="242"/>
      <point x="184" y="241"/>
      <point x="178" y="240" type="curve"/>
      <point x="178" y="315" type="line"/>
      <point x="187" y="314"/>
      <point x="199" y="314"/>
      <point x="215" y="314" type="curve" smooth="yes"/>
      <point x="244" y="314"/>
      <point x="277" y="345"/>
      <point x="277" y="396" type="curve" smooth="yes"/>
      <point x="277" y="435"/>
      <point x="249" y="458"/>
      <point x="215" y="458" type="curve" smooth="yes"/>
      <point x="177" y="458"/>
      <point x="149" y="427"/>
      <point x="139" y="385" type="curve"/>
      <point x="48" y="397" type="line"/>
      <point x="64" y="480"/>
      <point x="125" y="538"/>
      <point x="218" y="538" type="curve" smooth="yes"/>
      <point x="319" y="538"/>
      <point x="384" y="475"/>
      <point x="384" y="394" type="curve" smooth="yes"/>
      <point x="384" y="348"/>
      <point x="356" y="310"/>
      <point x="319" y="287" type="curve"/>
      <point x="372" y="265"/>
      <point x="407" y="221"/>
    </contour>
  </outline>
</glyph>
<glyph name="four" format="2">
  <advance width="450"/>
  <unicode hex="0034"/>
  <outline>
    <contour>
      <point x="428" y="111" type="line"/>
      <point x="369" y="111" type="line"/>
      <point x="369" y="0" type="line"/>
      <point x="255" y="0" type="line"/>
      <point x="255" y="111" type="line"/>
      <point x="27" y="111" type="line"/>
      <point x="27" y="197" type="line"/>
      <point x="267" y="531" type="line"/>
      <point x="369" y="531" type="line"/>
      <point x="369" y="201" type="line"/>
      <point x="428" y="201" type="line"/>
    </contour>
    <contour>
      <point x="255" y="153" type="line"/>
      <point x="255" y="445" type="line"/>
      <point x="310" y="436" type="line"/>
      <point x="111" y="162" type="line"/>
      <point x="84" y="201" type="line"/>
      <point x="321" y="201" type="line"/>
    </contour>
  </outline>
</glyph>
<glyph name="five" format="2">
  <advance width="450"/>
  <unicode hex="0035"/>
  <outline>
    <contour>
      <point x="411" y="179" type="curve" smooth="yes"/>
      <point x="411" y="71"/>
      <point x="340" y="-8"/>
      <point x="223" y="-8" type="curve" smooth="yes"/>
      <point x="148" y="-8"/>
      <point x="78" y="25"/>
      <point x="52" y="102" type="curve"/>
      <point x="154" y="130" type="line"/>
      <point x="167" y="93"/>
      <point x="194" y="69"/>
      <point x="222" y="69" type="curve" smooth="yes"/>
      <point x="270" y="69"/>
      <point x="306" y="113"/>
      <point x="306" y="174" type="curve" smooth="yes"/>
      <point x="306" y="237"/>
      <point x="276" y="282"/>
      <point x="231" y="282" type="curve" smooth="yes"/>
      <point x="199" y="282"/>
      <point x="179" y="269"/>
      <point x="149" y="230" type="curve"/>
      <point x="57" y="243" type="line"/>
      <point x="109" y="531" type="line"/>
      <point x="383" y="531" type="line"/>
      <point x="383" y="441" type="line"/>
      <point x="182" y="441" type="line"/>
      <point x="160" y="327" type="line"/>
      <point x="179" y="348"/>
      <point x="211" y="363"/>
      <point x="252" y="363" type="curve" smooth="yes"/>
      <point x="349" y="363"/>
      <point x="411" y="278"/>
    </contour>
  </outline>
</glyph>
<glyph name="six" format="2">
  <advance width="450"/>
  <unicode hex="0036"/>
  <outline>
    <contour>
      <point x="411" y="164" type="curve" smooth="yes"/>
      <point x="411" y="53"/>
      <point x="338" y="-8"/>
      <point x="228" y="-8" type="curve" smooth="yes"/>
      <point x="101" y="-8"/>
      <point x="44" y="81"/>
      <point x="44" y="237" type="curve" smooth="yes"/>
      <point x="44" y="419"/>
      <point x="103" y="538"/>
      <point x="251" y="538" type="curve" smooth="yes"/>
      <point x="326" y="538"/>
      <point x="383" y="494"/>
      <point x="403" y="422" type="curve"/>
      <point x="307" y="391" type="line"/>
      <point x="298" y="427"/>
      <point x="277" y="458"/>
      <point x="241" y="458" type="curve" smooth="yes"/>
      <point x="183" y="458"/>
      <point x="148" y="391"/>
      <point x="143" y="294" type="curve"/>
      <point x="169" y="323"/>
      <point x="209" y="340"/>
      <point x="244" y="340" type="curve" smooth="yes"/>
      <point x="345" y="340"/>
      <point x="411" y="273"/>
    </contour>
    <contour>
      <point x="304" y="166" type="curve" smooth="yes"/>
      <point x="304" y="219"/>
      <point x="275" y="261"/>
      <point x="233" y="261" type="curve" smooth="yes"/>
      <point x="190" y="261"/>
      <point x="160" y="224"/>
      <point x="160" y="164" type="curve" smooth="yes"/>
      <point x="160" y="106"/>
      <point x="189" y="71"/>
      <point x="231" y="71" type="curve" smooth="yes"/>
      <point x="276" y="71"/>
      <point x="304" y="110"/>
    </contour>
  </outline>
</glyph>
<glyph name="seven" format="2">
  <advance width="450"/>
  <unicode hex="0037"/>
  <outline>
    <contour>
      <point x="401" y="448" type="line"/>
      <point x="288" y="305"/>
      <point x="243" y="172"/>
      <point x="229" y="0" type="curve"/>
      <point x="126" y="0" type="line"/>
      <point x="141" y="171"/>
      <point x="183" y="305"/>
      <point x="275" y="436" type="curve"/>
      <point x="63" y="436" type="line"/>
      <point x="63" y="531" type="line"/>
      <point x="401" y="531" type="line"/>
    </contour>
  </outline>
</glyph>
<glyph name="eight" format="2">
  <advance width="450"/>
  <unicode hex="0038"/>
  <outline>
    <contour>
      <point x="410" y="146" type="curve" smooth="yes"/>
      <point x="410" y="45"/>
      <point x="328" y="-10"/>
      <point x="225" y="-10" type="curve" smooth="yes"/>
      <point x="126" y="-10"/>
      <point x="40" y="45"/>
      <point x="40" y="148" type="curve" smooth="yes"/>
      <point x="40" y="218"/>
      <point x="74" y="264"/>
      <point x="127" y="287" type="curve"/>
      <point x="89" y="304"/>
      <point x="62" y="346"/>
      <point x="62" y="398" type="curve" smooth="yes"/>
      <point x="62" y="484"/>
      <point x="134" y="538"/>
      <point x="224" y="538" type="curve" smooth="yes"/>
      <point x="319" y="538"/>
      <point x="389" y="484"/>
      <point x="389" y="396" type="curve" smooth="yes"/>
      <point x="389" y="349"/>
      <point x="362" y="307"/>
      <point x="325" y="284" type="curve"/>
      <point x="376" y="262"/>
      <point x="410" y="216"/>
    </contour>
    <contour>
      <point x="274" y="393" type="curve" smooth="yes"/>
      <point x="274" y="436"/>
      <point x="254" y="460"/>
      <point x="225" y="460" type="curve" smooth="yes"/>
      <point x="196" y="460"/>
      <point x="175" y="436"/>
      <point x="175" y="393" type="curve" smooth="yes"/>
      <point x="175" y="353"/>
      <point x="197" y="322"/>
      <point x="223" y="322" type="curve" smooth="yes"/>
      <point x="252" y="322"/>
      <point x="274" y="350"/>
    </contour>
    <contour>
      <point x="295" y="152" type="curve" smooth="yes"/>
      <point x="295" y="207"/>
      <point x="265" y="244"/>
      <point x="224" y="244" type="curve" smooth="yes"/>
      <point x="185" y="244"/>
      <point x="154" y="207"/>
      <point x="154" y="154" type="curve" smooth="yes"/>
      <point x="154" y="101"/>
      <point x="187" y="68"/>
      <point x="226" y="68" type="curve" smooth="yes"/>
      <point x="263" y="68"/>
      <point x="295" y="101"/>
    </contour>
  </outline>
</glyph>
<glyph name="nine" format="2">
  <advance width="434"/>
  <unicode hex="0039"/>
  <outline>
    <contour>
      <point x="401" y="279" type="curve" smooth="yes"/>
      <point x="401" y="81"/>
      <point x="329" y="-8"/>
      <point x="204" y="-8" type="curve" smooth="yes"/>
      <point x="125" y="-8"/>
      <point x="53" y="39"/>
      <point x="45" y="115" type="curve"/>
      <point x="138" y="125" type="line"/>
      <point x="142" y="92"/>
      <point x="174" y="69"/>
      <point x="203" y="69" type="curve" smooth="yes"/>
      <point x="268" y="69"/>
      <point x="305" y="149"/>
      <point x="305" y="229" type="curve" smooth="yes"/>
      <point x="305" y="241" type="line"/>
      <point x="285" y="210"/>
      <point x="242" y="193"/>
      <point x="203" y="193" type="curve" smooth="yes"/>
      <point x="98" y="193"/>
      <point x="36" y="259"/>
      <point x="36" y="359" type="curve" smooth="yes"/>
      <point x="36" y="466"/>
      <point x="104" y="538"/>
      <point x="210" y="538" type="curve" smooth="yes"/>
      <point x="341" y="538"/>
      <point x="401" y="436"/>
    </contour>
    <contour>
      <point x="286" y="364" type="curve" smooth="yes"/>
      <point x="286" y="421"/>
      <point x="255" y="462"/>
      <point x="209" y="462" type="curve" smooth="yes"/>
      <point x="166" y="462"/>
      <point x="138" y="419"/>
      <point x="138" y="364" type="curve" smooth="yes"/>
      <point x="138" y="312"/>
      <point x="166" y="267"/>
      <point x="212" y="267" type="curve" smooth="yes"/>
      <point x="254" y="267"/>
      <point x="286" y="314"/>
    </contour>
  </outline>
</glyph>
<glyph name="colon" format="2">
  <advance width="276"/>
  <unicode hex="003A"/>
  <outline>
    <contour>
      <point x="138" y="306" type="curve" smooth="yes"/>
      <point x="181" y="306"/>
      <point x="215" y="340"/>
      <point x="215" y="382" type="curve" smooth="yes"/>
      <point x="215" y="425"/>
      <point x="181" y="460"/>
      <point x="138" y="460" type="curve" smooth="yes"/>
      <point x="94" y="460"/>
      <point x="60" y="425"/>
      <point x="60" y="382" type="curve" smooth="yes"/>
      <point x="60" y="340"/>
      <point x="94" y="306"/>
    </contour>
    <contour>
      <point x="138" y="-12" type="curve" smooth="yes"/>
      <point x="181" y="-12"/>
      <point x="215" y="21"/>
      <point x="215" y="63" type="curve" smooth="yes"/>
      <point x="215" y="105"/>
      <point x="181" y="140"/>
      <point x="138" y="140" type="curve" smooth="yes"/>
      <point x="94" y="140"/>
      <point x="60" y="105"/>
      <point x="60" y="63" type="curve" smooth="yes"/>
      <point x="60" y="21"/>
      <point x="94" y="-12"/>
    </contour>
  </outline>
</glyph>
<glyph name="equal" format="2">
  <advance width="496"/>
  <unicode hex="003D"/>
  <outline>
    <contour>
      <point x="469" y="168" type="line"/>
      <point x="469" y="240" type="line"/>
      <point x="26" y="240" type="line"/>
      <point x="26" y="168" type="line"/>
    </contour>
    <contour>
      <point x="469" y="358" type="line"/>
      <point x="469" y="429" type="line"/>
      <point x="26" y="429" type="line"/>
      <point x="26" y="358" type="line"/>
    </contour>
  </outline>
</glyph>
<glyph name="question" format="2">
  <advance width="467"/>
  <unicode hex="003F"/>
  <outline>
    <contour>
      <point x="219" y="-8" type="curve" smooth="yes"/>
      <point x="262" y="-8"/>
      <point x="296" y="27"/>
      <point x="296" y="69" type="curve" smooth="yes"/>
      <point x="296" y="111"/>
      <point x="262" y="146"/>
      <point x="219" y="146" type="curve" smooth="yes"/>
      <point x="177" y="146"/>
      <point x="142" y="111"/>
      <point x="142" y="69" type="curve" smooth="yes"/>
      <point x="142" y="27"/>
      <point x="177" y="-8"/>
    </contour>
    <contour>
      <point x="415" y="440" type="curve" smooth="yes"/>
      <point x="415" y="516"/>
      <point x="329" y="570"/>
      <point x="234" y="570" type="curve" smooth="yes"/>
      <point x="120" y="570"/>
      <point x="26" y="522"/>
      <point x="26" y="419" type="curve"/>
      <point x="170" y="419" type="line"/>
      <point x="170" y="459"/>
      <point x="183" y="484"/>
      <point x="224" y="484" type="curve" smooth="yes"/>
      <point x="259" y="484"/>
      <point x="271" y="460"/>
      <point x="271" y="436" type="curve" smooth="yes"/>
      <point x="271" y="413"/>
      <point x="239" y="378"/>
      <point x="213" y="352" type="curve" smooth="yes"/>
      <point x="177" y="317"/>
      <point x="147" y="278"/>
      <point x="147" y="235" type="curve" smooth="yes"/>
      <point x="147" y="207" type="line"/>
      <point x="291" y="207" type="line"/>
      <point x="291" y="225" type="line" smooth="yes"/>
      <point x="291" y="255"/>
      <point x="316" y="287"/>
      <point x="350" y="322" type="curve" smooth="yes"/>
      <point x="380" y="352"/>
      <point x="415" y="400"/>
    </contour>
  </outline>
</glyph>
<glyph name="at" format="2">
  <advance width="802"/>
  <unicode hex="0040"/>
  <outline>
    <contour>
      <point x="320" y="38" type="curve" smooth="yes"/>
      <point x="381" y="38"/>
      <point x="435" y="81"/>
      <point x="483" y="169" type="curve"/>
      <point x="474" y="187" type="line"/>
      <point x="427" y="128"/>
      <point x="401" y="111"/>
      <point x="373" y="111" type="curve" smooth="yes"/>
      <point x="336" y="111"/>
      <point x="313" y="138"/>
      <point x="313" y="195" type="curve" smooth="yes"/>
      <point x="313" y="309"/>
      <point x="383" y="385"/>
      <point x="435" y="385" type="curve" smooth="yes"/>
      <point x="460" y="385"/>
      <point x="480" y="372"/>
      <point x="503" y="327" type="curve"/>
      <point x="540" y="376" type="line"/>
      <point x="515" y="418"/>
      <point x="481" y="441"/>
      <point x="435" y="441" type="curve" smooth="yes"/>
      <point x="321" y="441"/>
      <point x="215" y="298"/>
      <point x="215" y="167" type="curve" smooth="yes"/>
      <point x="215" y="79"/>
      <point x="264" y="38"/>
    </contour>
    <contour>
      <point x="556" y="38" type="curve" smooth="yes"/>
      <point x="653" y="38"/>
      <point x="762" y="135"/>
      <point x="762" y="305" type="curve" smooth="yes"/>
      <point x="762" y="473"/>
      <point x="652" y="603"/>
      <point x="454" y="603" type="curve" smooth="yes"/>
      <point x="204" y="603"/>
      <point x="40" y="404"/>
      <point x="40" y="182" type="curve" smooth="yes"/>
      <point x="40" y="-14"/>
      <point x="170" y="-141"/>
      <point x="365" y="-141" type="curve" smooth="yes"/>
      <point x="428" y="-141"/>
      <point x="490" y="-126"/>
      <point x="544" y="-101" type="curve"/>
      <point x="530" y="-64" type="line"/>
      <point x="485" y="-81"/>
      <point x="440" y="-89"/>
      <point x="388" y="-89" type="curve" smooth="yes"/>
      <point x="227" y="-89"/>
      <point x="106" y="8"/>
      <point x="106" y="193" type="curve" smooth="yes"/>
      <point x="106" y="382"/>
      <point x="240" y="559"/>
      <point x="448" y="559" type="curve" smooth="yes"/>
      <point x="602" y="559"/>
      <point x="701" y="467"/>
      <point x="701" y="309" type="curve" smooth="yes"/>
      <point x="701" y="167"/>
      <point x="632" y="94"/>
      <point x="580" y="94" type="curve" smooth="yes"/>
      <point x="543" y="94"/>
      <point x="529" y="115"/>
      <point x="540" y="172" type="curve" smooth="yes"/>
      <point x="586" y="421" type="line"/>
      <point x="563" y="437" type="line"/>
      <point x="485" y="394" type="line"/>
      <point x="440" y="139" type="line"/>
      <point x="448" y="130" type="line"/>
      <point x="455" y="78"/>
      <point x="493" y="38"/>
    </contour>
  </outline>
</glyph>
<glyph name="C" format="2">
  <advance width="575"/>
  <unicode hex="0043"/>
  <anchor x="337" y="632" name="aboveUC"/>
  <anchor x="348" y="0" name="baseLC"/>
  <anchor x="347" y="-20" name="belowLC"/>
  <outline>
    <contour>
      <point x="34" y="97"/>
      <point x="172" y="-16"/>
      <point x="351" y="-16" type="curve" smooth="yes"/>
      <point x="426" y="-16"/>
      <point x="490" y="1"/>
      <point x="542" y="30" type="curve"/>
      <point x="546" y="168" type="line"/>
      <point x="481" y="168" type="line"/>
      <point x="452" y="27" type="line"/>
      <point x="512" y="40" type="line"/>
      <point x="512" y="88" type="line"/>
      <point x="466" y="52"/>
      <point x="416" y="34"/>
      <point x="369" y="34" type="curve" smooth="yes"/>
      <point x="262" y="34"/>
      <point x="176" y="118"/>
      <point x="176" y="303" type="curve" smooth="yes"/>
      <point x="176" y="488"/>
      <point x="267" y="574"/>
      <point x="374" y="574" type="curve" smooth="yes"/>
      <point x="416" y="574"/>
      <point x="458" y="557"/>
      <point x="505" y="516" type="curve"/>
      <point x="505" y="568" type="line"/>
      <point x="444" y="581" type="line"/>
      <point x="473" y="439" type="line"/>
      <point x="539" y="439" type="line"/>
      <point x="535" y="578" type="line"/>
      <point x="478" y="610"/>
      <point x="419" y="624"/>
      <point x="356" y="624" type="curve" smooth="yes"/>
      <point x="181" y="624"/>
      <point x="34" y="511"/>
      <point x="34" y="304" type="curve" smooth="yes"/>
    </contour>
  </outline>
</glyph>
<glyph name="F" format="2">
  <advance width="532"/>
  <unicode hex="0046"/>
  <anchor x="298" y="632" name="aboveUC"/>
  <anchor x="180" y="-20" name="belowLC"/>
  <outline>
    <contour>
      <point x="34" y="0" type="line"/>
      <point x="326" y="0" type="line"/>
      <point x="326" y="45" type="line"/>
      <point x="197" y="58" type="line"/>
      <point x="162" y="58" type="line"/>
      <point x="34" y="45" type="line"/>
    </contour>
    <contour>
      <point x="109" y="188"/>
      <point x="109" y="92"/>
      <point x="106" y="0" type="curve"/>
      <point x="244" y="0" type="line"/>
      <point x="241" y="94"/>
      <point x="241" y="190"/>
      <point x="241" y="291" type="curve" smooth="yes"/>
      <point x="241" y="322" type="line" smooth="yes"/>
      <point x="241" y="419"/>
      <point x="241" y="515"/>
      <point x="244" y="608" type="curve"/>
      <point x="106" y="608" type="line"/>
      <point x="109" y="513"/>
      <point x="109" y="417"/>
      <point x="109" y="322" type="curve" smooth="yes"/>
      <point x="109" y="285" type="line" smooth="yes"/>
    </contour>
    <contour>
      <point x="175" y="287" type="line"/>
      <point x="384" y="287" type="line"/>
      <point x="384" y="338" type="line"/>
      <point x="175" y="338" type="line"/>
    </contour>
    <contour>
      <point x="369" y="201" type="line"/>
      <point x="418" y="201" type="line"/>
      <point x="418" y="415" type="line"/>
      <point x="369" y="415" type="line"/>
      <point x="356" y="323" type="line"/>
      <point x="356" y="298" type="line"/>
    </contour>
    <contour>
      <point x="34" y="563" type="line"/>
      <point x="162" y="549" type="line"/>
      <point x="175" y="549" type="line"/>
      <point x="175" y="608" type="line"/>
      <point x="34" y="608" type="line"/>
    </contour>
    <contour>
      <point x="441" y="448" type="line"/>
      <point x="509" y="448" type="line"/>
      <point x="503" y="608" type="line"/>
      <point x="175" y="608" type="line"/>
      <point x="175" y="558" type="line"/>
      <point x="449" y="558" type="line"/>
      <point x="417" y="586" type="line"/>
    </contour>
  </outline>
</glyph>
<glyph name="G" format="2">
  <advance width="622"/>
  <unicode hex="0047"/>
  <anchor x="345" y="632" name="aboveUC"/>
  <anchor x="364" y="-20" name="belowLC"/>
  <outline>
    <contour>
      <point x="34" y="108"/>
      <point x="162" y="-16"/>
      <point x="350" y="-16" type="curve" smooth="yes"/>
      <point x="430" y="-16"/>
      <point x="493" y="2"/>
      <point x="556" y="37" type="curve"/>
      <point x="556" y="77" type="line" smooth="yes"/>
      <point x="556" y="151"/>
      <point x="557" y="223"/>
      <point x="559" y="296" type="curve"/>
      <point x="427" y="296" type="line"/>
      <point x="429" y="222"/>
      <point x="430" y="151"/>
      <point x="430" y="79" type="curve" smooth="yes"/>
      <point x="430" y="14" type="line"/>
      <point x="491" y="68" type="line"/>
      <point x="447" y="45"/>
      <point x="417" y="34"/>
      <point x="374" y="34" type="curve" smooth="yes"/>
      <point x="259" y="34"/>
      <point x="176" y="125"/>
      <point x="176" y="304" type="curve" smooth="yes"/>
      <point x="176" y="485"/>
      <point x="264" y="574"/>
      <point x="373" y="574" type="curve" smooth="yes"/>
      <point x="419" y="574"/>
      <point x="462" y="558"/>
      <point x="508" y="519" type="curve"/>
      <point x="508" y="569" type="line"/>
      <point x="447" y="584" type="line"/>
      <point x="476" y="441" type="line"/>
      <point x="542" y="441" type="line"/>
      <point x="539" y="581" type="line"/>
      <point x="486" y="610"/>
      <point x="425" y="624"/>
      <point x="359" y="624" type="curve" smooth="yes"/>
      <point x="157" y="624"/>
      <point x="34" y="495"/>
      <point x="34" y="304" type="curve" smooth="yes"/>
    </contour>
    <contour>
      <point x="342" y="251" type="line"/>
      <point x="456" y="238" type="line"/>
      <point x="503" y="238" type="line"/>
      <point x="609" y="251" type="line"/>
      <point x="609" y="296" type="line"/>
      <point x="342" y="296" type="line"/>
    </contour>
  </outline>
</glyph>
<glyph name="O" format="2">
  <advance width="646"/>
  <unicode hex="004F"/>
  <anchor x="323" y="632" name="aboveUC"/>
  <anchor x="323" y="-20" name="belowLC"/>
  <anchor x="459" y="609" name="hornLC"/>
  <anchor x="406" y="0" name="ogonek"/>
  <outline>
    <contour>
      <point x="323" y="-16" type="curve" smooth="yes"/>
      <point x="472" y="-16"/>
      <point x="611" y="95"/>
      <point x="611" y="304" type="curve" smooth="yes"/>
      <point x="611" y="517"/>
      <point x="471" y="624"/>
      <point x="323" y="624" type="curve" smooth="yes"/>
      <point x="175" y="624"/>
      <point x="34" y="513"/>
      <point x="34" y="304" type="curve" smooth="yes"/>
      <point x="34" y="91"/>
      <point x="174" y="-16"/>
    </contour>
    <contour>
      <point x="323" y="34" type="curve" smooth="yes"/>
      <point x="219" y="34"/>
      <point x="176" y="155"/>
      <point x="176" y="304" type="curve" smooth="yes"/>
      <point x="176" y="451"/>
      <point x="219" y="573"/>
      <point x="323" y="573" type="curve" smooth="yes"/>
      <point x="427" y="573"/>
      <point x="470" y="451"/>
      <point x="470" y="304" type="curve" smooth="yes"/>
      <point x="470" y="155"/>
      <point x="427" y="34"/>
    </contour>
  </outline>
</glyph>
<glyph name="P" format="2">
  <advance width="556"/>
  <unicode hex="0050"/>
  <anchor x="273" y="632" name="aboveUC"/>
  <anchor x="178" y="-20" name="belowLC"/>
  <outline>
    <contour>
      <point x="34" y="0" type="line"/>
      <point x="326" y="0" type="line"/>
      <point x="326" y="45" type="line"/>
      <point x="197" y="58" type="line"/>
      <point x="162" y="58" type="line"/>
      <point x="34" y="45" type="line"/>
    </contour>
    <contour>
      <point x="109" y="188"/>
      <point x="109" y="92"/>
      <point x="106" y="0" type="curve"/>
      <point x="244" y="0" type="line"/>
      <point x="241" y="94"/>
      <point x="241" y="185"/>
      <point x="241" y="266" type="curve" smooth="yes"/>
      <point x="241" y="322" type="line" smooth="yes"/>
      <point x="241" y="419"/>
      <point x="241" y="515"/>
      <point x="244" y="608" type="curve"/>
      <point x="106" y="608" type="line"/>
      <point x="109" y="513"/>
      <point x="109" y="417"/>
      <point x="109" y="322" type="curve" smooth="yes"/>
      <point x="109" y="285" type="line" smooth="yes"/>
    </contour>
    <contour>
      <point x="175" y="235" type="line"/>
      <point x="275" y="235" type="line" smooth="yes"/>
      <point x="470" y="235"/>
      <point x="539" y="322"/>
      <point x="539" y="425" type="curve" smooth="yes"/>
      <point x="539" y="535"/>
      <point x="462" y="608"/>
      <point x="283" y="608" type="curve" smooth="yes"/>
      <point x="175" y="608" type="line"/>
      <point x="175" y="558" type="line"/>
      <point x="276" y="558" type="line" smooth="yes"/>
      <point x="366" y="558"/>
      <point x="413" y="512"/>
      <point x="413" y="425" type="curve" smooth="yes"/>
      <point x="413" y="341"/>
      <point x="371" y="283"/>
      <point x="279" y="283" type="curve" smooth="yes"/>
      <point x="175" y="283" type="line"/>
    </contour>
    <contour>
      <point x="34" y="563" type="line"/>
      <point x="162" y="549" type="line"/>
      <point x="175" y="549" type="line"/>
      <point x="175" y="608" type="line"/>
      <point x="34" y="608" type="line"/>
    </contour>
  </outline>
</glyph>
<glyph name="U" format="2">
  <advance width="671"/>
  <unicode hex="0055"/>
  <anchor x="368" y="632" name="aboveUC"/>
  <anchor x="348" y="-20" name="belowLC"/>
  <anchor x="552" y="625" name="hornLC"/>
  <anchor x="416" y="0" name="ogonek"/>
  <outline>
    <contour>
      <point x="101" y="53"/>
      <point x="197" y="-16"/>
      <point x="333" y="-16" type="curve" smooth="yes"/>
      <point x="475" y="-16"/>
      <point x="567" y="62"/>
      <point x="567" y="257" type="curve" smooth="yes"/>
      <point x="567" y="608" type="line"/>
      <point x="511" y="608" type="line"/>
      <point x="511" y="264" type="line" smooth="yes"/>
      <point x="511" y="117"/>
      <point x="460" y="61"/>
      <point x="371" y="61" type="curve" smooth="yes"/>
      <point x="282" y="61"/>
      <point x="233" y="111"/>
      <point x="233" y="258" type="curve" smooth="yes"/>
      <point x="233" y="329" type="line" smooth="yes"/>
      <point x="233" y="423"/>
      <point x="233" y="517"/>
      <point x="236" y="608" type="curve"/>
      <point x="98" y="608" type="line"/>
      <point x="101" y="515"/>
      <point x="101" y="421"/>
      <point x="101" y="329" type="curve" smooth="yes"/>
      <point x="101" y="229" type="line" smooth="yes"/>
    </contour>
    <contour>
      <point x="29" y="563" type="line"/>
      <point x="161" y="549" type="line"/>
      <point x="185" y="549" type="line"/>
      <point x="316" y="563" type="line"/>
      <point x="316" y="608" type="line"/>
      <point x="29" y="608" type="line"/>
    </contour>
    <contour>
      <point x="425" y="563" type="line"/>
      <point x="524" y="552" type="line"/>
      <point x="548" y="552" type="line"/>
      <point x="644" y="563" type="line"/>
      <point x="644" y="608" type="line"/>
      <point x="425" y="608" type="line"/>
    </contour>
  </outline>
</glyph>
<glyph name="V" format="2">
  <advance width="612"/>
  <unicode hex="0056"/>
  <anchor x="329" y="632" name="aboveUC"/>
  <anchor x="310" y="-20" name="belowLC"/>
  <outline>
    <contour>
      <point x="271" y="-2" type="line"/>
      <point x="344" y="-2" type="line"/>
      <point x="554" y="608" type="line"/>
      <point x="498" y="608" type="line"/>
      <point x="335" y="127" type="line"/>
      <point x="354" y="127" type="line"/>
      <point x="191" y="608" type="line"/>
      <point x="49" y="608" type="line"/>
    </contour>
    <contour>
      <point x="9" y="563" type="line"/>
      <point x="138" y="549" type="line"/>
      <point x="166" y="549" type="line"/>
      <point x="290" y="563" type="line"/>
      <point x="290" y="608" type="line"/>
      <point x="9" y="608" type="line"/>
    </contour>
    <contour>
      <point x="403" y="563" type="line"/>
      <point x="500" y="549" type="line"/>
      <point x="515" y="549" type="line"/>
      <point x="608" y="563" type="line"/>
      <point x="608" y="608" type="line"/>
      <point x="403" y="608" type="line"/>
    </contour>
  </outline>
</glyph>
<glyph name="bracketleft" format="2">
  <advance width="291"/>
  <unicode hex="005B"/>
  <outline>
    <contour>
      <point x="54" y="647" type="line"/>
      <point x="278" y="647" type="line"/>
      <point x="278" y="567" type="line"/>
      <point x="155" y="567" type="line"/>
      <point x="155" y="-50" type="line"/>
      <point x="278" y="-50" type="line"/>
      <point x="278" y="-130" type="line"/>
      <point x="54" y="-130" type="line"/>
    </contour>
  </outline>
</glyph>
<glyph name="bracketright" format="2">
  <advance width="291"/>
  <unicode hex="005D"/>
  <outline>
    <contour>
      <point x="237" y="647" type="line"/>
      <point x="237" y="-130" type="line"/>
      <point x="13" y="-130" type="line"/>
      <point x="13" y="-50" type="line"/>
      <point x="136" y="-50" type="line"/>
      <point x="136" y="567" type="line"/>
      <point x="13" y="567" type="line"/>
      <point x="13" y="647" type="line"/>
    </contour>
  </outline>
</glyph>
<glyph name="c" format="2">
  <advance width="463"/>
  <unicode hex="0063"/>
  <anchor x="260" y="471" name="aboveLC"/>
  <anchor x="257" y="0" name="baseLC"/>
  <anchor x="257" y="-20" name="belowLC"/>
  <outline>
    <contour>
      <point x="30" y="69"/>
      <point x="126" y="-12"/>
      <point x="252" y="-12" type="curve" smooth="yes"/>
      <point x="338" y="-12"/>
      <point x="402" y="24"/>
      <point x="434" y="99" type="curve"/>
      <point x="405" y="122" type="line"/>
      <point x="379" y="87"/>
      <point x="341" y="65"/>
      <point x="294" y="65" type="curve" smooth="yes"/>
      <point x="213" y="65"/>
      <point x="159" y="125"/>
      <point x="159" y="233" type="curve" smooth="yes"/>
      <point x="159" y="356"/>
      <point x="217" y="410"/>
      <point x="277" y="410" type="curve" smooth="yes"/>
      <point x="306" y="410"/>
      <point x="333" y="403"/>
      <point x="362" y="389" type="curve"/>
      <point x="302" y="425" type="line"/>
      <point x="316" y="355" type="line" smooth="yes"/>
      <point x="321" y="303"/>
      <point x="345" y="282"/>
      <point x="379" y="282" type="curve" smooth="yes"/>
      <point x="409" y="282"/>
      <point x="426" y="296"/>
      <point x="435" y="325" type="curve"/>
      <point x="426" y="397"/>
      <point x="358" y="455"/>
      <point x="266" y="455" type="curve" smooth="yes"/>
      <point x="138" y="455"/>
      <point x="30" y="368"/>
      <point x="30" y="219" type="curve" smooth="yes"/>
    </contour>
  </outline>
</glyph>
<glyph name="d" format="2">
  <advance width="538"/>
  <unicode hex="0064"/>
  <anchor x="381" y="667" name="aboveLC"/>
  <anchor x="277" y="-20" name="belowLC"/>
  <outline>
    <contour>
      <point x="31" y="72"/>
      <point x="109" y="-12"/>
      <point x="216" y="-12" type="curve" smooth="yes"/>
      <point x="282" y="-12"/>
      <point x="329" y="16"/>
      <point x="368" y="76" type="curve"/>
      <point x="389" y="76" type="line"/>
      <point x="379" y="134" type="line"/>
      <point x="345" y="86"/>
      <point x="314" y="57"/>
      <point x="269" y="57" type="curve" smooth="yes"/>
      <point x="207" y="57"/>
      <point x="162" y="111"/>
      <point x="162" y="218" type="curve" smooth="yes"/>
      <point x="162" y="333"/>
      <point x="210" y="386"/>
      <point x="270" y="386" type="curve" smooth="yes"/>
      <point x="307" y="386"/>
      <point x="336" y="366"/>
      <point x="378" y="320" type="curve"/>
      <point x="387" y="377" type="line"/>
      <point x="366" y="377" type="line"/>
      <point x="329" y="430"/>
      <point x="289" y="455"/>
      <point x="231" y="455" type="curve" smooth="yes"/>
      <point x="125" y="455"/>
      <point x="31" y="363"/>
      <point x="31" y="217" type="curve" smooth="yes"/>
    </contour>
    <contour>
      <point x="352" y="-10" type="line"/>
      <point x="520" y="0" type="line"/>
      <point x="520" y="39" type="line"/>
      <point x="465" y="49" type="line"/>
      <point x="465" y="534" type="line"/>
      <point x="469" y="663" type="line"/>
      <point x="454" y="672" type="line"/>
      <point x="276" y="631" type="line"/>
      <point x="276" y="594" type="line"/>
      <point x="345" y="585" type="line"/>
      <point x="345" y="380" type="line"/>
      <point x="341" y="369" type="line"/>
      <point x="341" y="75" type="line"/>
    </contour>
  </outline>
</glyph>
<glyph name="e" format="2">
  <advance width="475"/>
  <unicode hex="0065"/>
  <anchor x="257" y="471" name="aboveLC"/>
  <anchor x="264" y="-20" name="belowLC"/>
  <anchor x="327" y="0" name="ogonek"/>
  <outline>
    <contour>
      <point x="31" y="73"/>
      <point x="122" y="-12"/>
      <point x="253" y="-12" type="curve" smooth="yes"/>
      <point x="340" y="-12"/>
      <point x="403" y="23"/>
      <point x="439" y="93" type="curve"/>
      <point x="411" y="119" type="line"/>
      <point x="381" y="87"/>
      <point x="346" y="65"/>
      <point x="294" y="65" type="curve" smooth="yes"/>
      <point x="218" y="65"/>
      <point x="161" y="119"/>
      <point x="161" y="232" type="curve" smooth="yes"/>
      <point x="161" y="365"/>
      <point x="207" y="410"/>
      <point x="252" y="410" type="curve" smooth="yes"/>
      <point x="293" y="410"/>
      <point x="326" y="374"/>
      <point x="326" y="316" type="curve" smooth="yes"/>
      <point x="326" y="280"/>
      <point x="315" y="262"/>
      <point x="271" y="262" type="curve" smooth="yes"/>
      <point x="84" y="262" type="line"/>
      <point x="84" y="217" type="line"/>
      <point x="437" y="217" type="line"/>
      <point x="441" y="230"/>
      <point x="443" y="246"/>
      <point x="443" y="266" type="curve" smooth="yes"/>
      <point x="443" y="378"/>
      <point x="372" y="455"/>
      <point x="259" y="455" type="curve" smooth="yes"/>
      <point x="142" y="455"/>
      <point x="31" y="368"/>
      <point x="31" y="218" type="curve" smooth="yes"/>
    </contour>
  </outline>
</glyph>
<glyph name="h" format="2">
  <advance width="563"/>
  <unicode hex="0068"/>
  <anchor x="133" y="667" name="aboveLC"/>
  <anchor x="293" y="-20" name="belowLC"/>
  <outline>
    <contour>
      <point x="26" y="0" type="line"/>
      <point x="258" y="0" type="line"/>
      <point x="258" y="39" type="line"/>
      <point x="170" y="57" type="line"/>
      <point x="116" y="57" type="line"/>
      <point x="26" y="39" type="line"/>
    </contour>
    <contour>
      <point x="83" y="136"/>
      <point x="82" y="41"/>
      <point x="80" y="0" type="curve"/>
      <point x="210" y="0" type="line"/>
      <point x="208" y="41"/>
      <point x="207" y="136"/>
      <point x="207" y="193" type="curve" smooth="yes"/>
      <point x="207" y="335" type="line"/>
      <point x="205" y="347" type="line"/>
      <point x="205" y="534" type="line"/>
      <point x="208" y="663" type="line"/>
      <point x="194" y="672" type="line"/>
      <point x="20" y="631" type="line"/>
      <point x="20" y="594" type="line"/>
      <point x="83" y="585" type="line"/>
      <point x="83" y="193" type="line" smooth="yes"/>
    </contour>
    <contour>
      <point x="308" y="0" type="line"/>
      <point x="540" y="0" type="line"/>
      <point x="540" y="39" type="line"/>
      <point x="449" y="57" type="line"/>
      <point x="396" y="57" type="line"/>
      <point x="308" y="39" type="line"/>
    </contour>
    <contour>
      <point x="363" y="134"/>
      <point x="362" y="41"/>
      <point x="360" y="0" type="curve"/>
      <point x="490" y="0" type="line"/>
      <point x="488" y="41"/>
      <point x="487" y="134"/>
      <point x="487" y="193" type="curve" smooth="yes"/>
      <point x="487" y="293" type="line" smooth="yes"/>
      <point x="487" y="403"/>
      <point x="438" y="455"/>
      <point x="357" y="455" type="curve" smooth="yes"/>
      <point x="296" y="455"/>
      <point x="241" y="424"/>
      <point x="187" y="355" type="curve"/>
      <point x="173" y="355" type="line"/>
      <point x="185" y="303" type="line"/>
      <point x="229" y="349"/>
      <point x="267" y="374"/>
      <point x="305" y="374" type="curve" smooth="yes"/>
      <point x="348" y="374"/>
      <point x="363" y="351"/>
      <point x="363" y="283" type="curve" smooth="yes"/>
      <point x="363" y="193" type="line" smooth="yes"/>
    </contour>
  </outline>
</glyph>
<glyph name="m" format="2">
  <advance width="832"/>
  <unicode hex="006D"/>
  <anchor x="420" y="471" name="aboveLC"/>
  <anchor x="424" y="-20" name="belowLC"/>
  <outline>
    <contour>
      <point x="632" y="0" type="curve"/>
      <point x="760" y="0" type="line"/>
      <point x="759" y="41"/>
      <point x="758" y="134"/>
      <point x="758" y="193" type="curve" smooth="yes"/>
      <point x="758" y="293" type="line" smooth="yes"/>
      <point x="758" y="404"/>
      <point x="715" y="455"/>
      <point x="629" y="455" type="curve" smooth="yes"/>
      <point x="568" y="455"/>
      <point x="514" y="428"/>
      <point x="460" y="353" type="curve"/>
      <point x="448" y="353" type="line"/>
      <point x="458" y="308" type="line"/>
      <point x="497" y="351"/>
      <point x="535" y="374"/>
      <point x="575" y="374" type="curve" smooth="yes"/>
      <point x="618" y="374"/>
      <point x="635" y="354"/>
      <point x="635" y="279" type="curve" smooth="yes"/>
      <point x="635" y="193" type="line" smooth="yes"/>
      <point x="635" y="134"/>
      <point x="634" y="41"/>
    </contour>
    <contour>
      <point x="29" y="0" type="line"/>
      <point x="262" y="0" type="line"/>
      <point x="262" y="39" type="line"/>
      <point x="173" y="57" type="line"/>
      <point x="119" y="57" type="line"/>
      <point x="29" y="39" type="line"/>
    </contour>
    <contour>
      <point x="84" y="0" type="curve"/>
      <point x="213" y="0" type="line"/>
      <point x="211" y="41"/>
      <point x="210" y="136"/>
      <point x="210" y="193" type="curve" smooth="yes"/>
      <point x="210" y="342" type="line"/>
      <point x="201" y="446" type="line"/>
      <point x="185" y="455" type="line"/>
      <point x="22" y="396" type="line"/>
      <point x="22" y="360" type="line"/>
      <point x="84" y="352" type="line"/>
      <point x="86" y="315"/>
      <point x="87" y="294"/>
      <point x="87" y="243" type="curve" smooth="yes"/>
      <point x="87" y="193" type="line" smooth="yes"/>
      <point x="87" y="136"/>
      <point x="86" y="41"/>
    </contour>
    <contour>
      <point x="306" y="0" type="line"/>
      <point x="536" y="0" type="line"/>
      <point x="536" y="39" type="line"/>
      <point x="448" y="57" type="line"/>
      <point x="394" y="57" type="line"/>
      <point x="306" y="39" type="line"/>
    </contour>
    <contour>
      <point x="360" y="0" type="curve"/>
      <point x="487" y="0" type="line"/>
      <point x="485" y="41"/>
      <point x="484" y="134"/>
      <point x="484" y="193" type="curve" smooth="yes"/>
      <point x="484" y="293" type="line" smooth="yes"/>
      <point x="484" y="403"/>
      <point x="441" y="455"/>
      <point x="356" y="455" type="curve" smooth="yes"/>
      <point x="293" y="455"/>
      <point x="237" y="418"/>
      <point x="189" y="354" type="curve"/>
      <point x="177" y="354" type="line"/>
      <point x="185" y="308" type="line"/>
      <point x="220" y="345"/>
      <point x="260" y="374"/>
      <point x="301" y="374" type="curve" smooth="yes"/>
      <point x="346" y="374"/>
      <point x="363" y="348"/>
      <point x="363" y="277" type="curve" smooth="yes"/>
      <point x="363" y="193" type="line" smooth="yes"/>
      <point x="363" y="134"/>
      <point x="362" y="41"/>
    </contour>
    <contour>
      <point x="582" y="0" type="line"/>
      <point x="811" y="0" type="line"/>
      <point x="811" y="39" type="line"/>
      <point x="723" y="57" type="line"/>
      <point x="667" y="57" type="line"/>
      <point x="582" y="39" type="line"/>
    </contour>
  </outline>
</glyph>
<glyph name="r" format="2">
  <advance width="414"/>
  <unicode hex="0072"/>
  <anchor x="238" y="471" name="aboveLC"/>
  <anchor x="155" y="-20" name="belowLC"/>
  <outline>
    <contour>
      <point x="29" y="0" type="line"/>
      <point x="285" y="0" type="line"/>
      <point x="285" y="39" type="line"/>
      <point x="194" y="57" type="line"/>
      <point x="121" y="57" type="line"/>
      <point x="29" y="39" type="line"/>
    </contour>
    <contour>
      <point x="84" y="0" type="curve"/>
      <point x="213" y="0" type="line"/>
      <point x="211" y="41"/>
      <point x="210" y="136"/>
      <point x="210" y="193" type="curve" smooth="yes"/>
      <point x="210" y="332" type="line"/>
      <point x="201" y="446" type="line"/>
      <point x="185" y="455" type="line"/>
      <point x="22" y="396" type="line"/>
      <point x="22" y="360" type="line"/>
      <point x="84" y="352" type="line"/>
      <point x="86" y="315"/>
      <point x="87" y="294"/>
      <point x="87" y="243" type="curve" smooth="yes"/>
      <point x="87" y="193" type="line" smooth="yes"/>
      <point x="87" y="136"/>
      <point x="86" y="41"/>
    </contour>
    <contour>
      <point x="208" y="253" type="line"/>
      <point x="224" y="313"/>
      <point x="257" y="361"/>
      <point x="298" y="387" type="curve"/>
      <point x="258" y="392" type="line"/>
      <point x="284" y="362" type="line" smooth="yes"/>
      <point x="304" y="338"/>
      <point x="324" y="326"/>
      <point x="350" y="326" type="curve" smooth="yes"/>
      <point x="387" y="326"/>
      <point x="411" y="352"/>
      <point x="412" y="399" type="curve"/>
      <point x="403" y="436"/>
      <point x="372" y="455"/>
      <point x="336" y="455" type="curve" smooth="yes"/>
      <point x="286" y="455"/>
      <point x="228" y="406"/>
      <point x="204" y="316" type="curve"/>
      <point x="183" y="316" type="line"/>
    </contour>
  </outline>
</glyph>
<glyph name="t" format="2">
  <advance width="319"/>
  <unicode hex="0074"/>
  <anchor x="163" y="591" name="aboveLC"/>
  <anchor x="190" y="0" name="baseLC"/>
  <anchor x="190" y="-20" name="belowLC"/>
  <outline>
    <contour>
      <point x="73" y="22"/>
      <point x="119" y="-12"/>
      <point x="196" y="-12" type="curve" smooth="yes"/>
      <point x="257" y="-12"/>
      <point x="299" y="10"/>
      <point x="322" y="51" type="curve"/>
      <point x="300" y="74" type="line"/>
      <point x="280" y="59"/>
      <point x="264" y="52"/>
      <point x="246" y="52" type="curve" smooth="yes"/>
      <point x="218" y="52"/>
      <point x="198" y="72"/>
      <point x="198" y="116" type="curve" smooth="yes"/>
      <point x="198" y="405" type="line"/>
      <point x="198" y="424" type="line"/>
      <point x="202" y="569" type="line"/>
      <point x="120" y="569" type="line"/>
      <point x="72" y="413" type="line"/>
      <point x="119" y="448" type="line"/>
      <point x="9" y="433" type="line"/>
      <point x="9" y="383" type="line"/>
      <point x="74" y="383" type="line"/>
      <point x="74" y="194" type="line" smooth="yes"/>
      <point x="74" y="158"/>
      <point x="73" y="135"/>
      <point x="73" y="106" type="curve" smooth="yes"/>
    </contour>
    <contour>
      <point x="137" y="383" type="line"/>
      <point x="304" y="383" type="line"/>
      <point x="304" y="441" type="line"/>
      <point x="137" y="441" type="line"/>
    </contour>
  </outline>
</glyph>
<glyph name="v" format="2">
  <advance width="478"/>
  <unicode hex="0076"/>
  <anchor x="258" y="471" name="aboveLC"/>
  <anchor x="237" y="-20" name="belowLC"/>
  <outline>
    <contour>
      <point x="208" y="-2" type="line"/>
      <point x="268" y="-2" type="line"/>
      <point x="437" y="441" type="line"/>
      <point x="378" y="441" type="line"/>
      <point x="264" y="110" type="line"/>
      <point x="283" y="110" type="line"/>
      <point x="159" y="441" type="line"/>
      <point x="23" y="441" type="line"/>
    </contour>
    <contour>
      <point x="-4" y="402" type="line"/>
      <point x="80" y="386" type="line"/>
      <point x="151" y="386" type="line"/>
      <point x="243" y="402" type="line"/>
      <point x="243" y="441" type="line"/>
      <point x="-4" y="441" type="line"/>
    </contour>
    <contour>
      <point x="297" y="402" type="line"/>
      <point x="379" y="388" type="line"/>
      <point x="399" y="388" type="line"/>
      <point x="471" y="402" type="line"/>
      <point x="471" y="441" type="line"/>
      <point x="297" y="441" type="line"/>
    </contour>
  </outline>
</glyph>
<glyph name="w" format="2">
  <advance width="718"/>
  <unicode hex="0077"/>
  <anchor x="374" y="471" name="aboveLC"/>
  <anchor x="362" y="-20" name="belowLC"/>
  <outline>
    <contour>
      <point x="186" y="-2" type="line"/>
      <point x="243" y="-2" type="line"/>
      <point x="363" y="328" type="line"/>
      <point x="345" y="328" type="line"/>
      <point x="464" y="-2" type="line"/>
      <point x="521" y="-2" type="line"/>
      <point x="677" y="441" type="line"/>
      <point x="616" y="441" type="line"/>
      <point x="515" y="120" type="line"/>
      <point x="532" y="120" type="line"/>
      <point x="420" y="441" type="line"/>
      <point x="352" y="441" type="line"/>
      <point x="238" y="117" type="line"/>
      <point x="255" y="116" type="line"/>
      <point x="151" y="441" type="line"/>
      <point x="23" y="441" type="line"/>
    </contour>
    <contour>
      <point x="-4" y="402" type="line"/>
      <point x="85" y="388" type="line"/>
      <point x="124" y="388" type="line"/>
      <point x="227" y="402" type="line"/>
      <point x="227" y="441" type="line"/>
      <point x="-4" y="441" type="line"/>
    </contour>
    <contour>
      <point x="276" y="402" type="line"/>
      <point x="373" y="388" type="line"/>
      <point x="405" y="388" type="line"/>
      <point x="494" y="402" type="line"/>
      <point x="494" y="441" type="line"/>
      <point x="276" y="441" type="line"/>
    </contour>
    <contour>
      <point x="543" y="402" type="line"/>
      <point x="622" y="390" type="line"/>
      <point x="639" y="390" type="line"/>
      <point x="711" y="402" type="line"/>
      <point x="711" y="441" type="line"/>
      <point x="543" y="441" type="line"/>
    </contour>
  </outline>
</glyph>
<glyph name="braceright" format="2">
  <advance width="311"/>
  <unicode hex="007D"/>
  <outline>
    <contour>
      <point x="275" y="278" type="line"/>
      <point x="197" y="292"/>
      <point x="173" y="317"/>
      <point x="173" y="356" type="curve" smooth="yes"/>
      <point x="173" y="414"/>
      <point x="220" y="468"/>
      <point x="220" y="541" type="curve" smooth="yes"/>
      <point x="220" y="620"/>
      <point x="156" y="657"/>
      <point x="61" y="657" type="curve" smooth="yes"/>
      <point x="27" y="657" type="line"/>
      <point x="27" y="612" type="line"/>
      <point x="52" y="609" type="line" smooth="yes"/>
      <point x="101" y="604"/>
      <point x="124" y="584"/>
      <point x="124" y="538" type="curve" smooth="yes"/>
      <point x="124" y="480"/>
      <point x="100" y="420"/>
      <point x="100" y="375" type="curve" smooth="yes"/>
      <point x="100" y="302"/>
      <point x="145" y="251"/>
      <point x="242" y="246" type="curve"/>
      <point x="242" y="264" type="line"/>
      <point x="145" y="260"/>
      <point x="100" y="208"/>
      <point x="100" y="136" type="curve" smooth="yes"/>
      <point x="100" y="91"/>
      <point x="124" y="31"/>
      <point x="124" y="-26" type="curve" smooth="yes"/>
      <point x="124" y="-72"/>
      <point x="101" y="-92"/>
      <point x="52" y="-98" type="curve" smooth="yes"/>
      <point x="27" y="-101" type="line"/>
      <point x="27" y="-146" type="line"/>
      <point x="61" y="-146" type="line" smooth="yes"/>
      <point x="156" y="-146"/>
      <point x="220" y="-108"/>
      <point x="220" y="-30" type="curve" smooth="yes"/>
      <point x="220" y="43"/>
      <point x="173" y="96"/>
      <point x="173" y="154" type="curve" smooth="yes"/>
      <point x="173" y="194"/>
      <point x="197" y="218"/>
      <point x="275" y="232" type="curve"/>
    </contour>
  </outline>
</glyph>
<glyph name="exclamdown" format="2">
  <advance width="301"/>
  <unicode hex="00A1"/>
  <outline>
    <contour>
      <point x="150" y="449" type="curve" smooth="yes"/>
      <point x="107" y="449"/>
      <point x="73" y="415"/>
      <point x="73" y="373" type="curve" smooth="yes"/>
      <point x="73" y="331"/>
      <point x="107" y="296"/>
      <point x="150" y="296" type="curve" smooth="yes"/>
      <point x="194" y="296"/>
      <point x="228" y="331"/>
      <point x="228" y="373" type="curve" smooth="yes"/>
      <point x="228" y="415"/>
      <point x="194" y="449"/>
    </contour>
    <contour>
      <point x="150" y="-182" type="curve" smooth="yes"/>
      <point x="197" y="-182"/>
      <point x="226" y="-157"/>
      <point x="226" y="-105" type="curve" smooth="yes"/>
      <point x="226" y="-71"/>
      <point x="218" y="-1"/>
      <point x="192" y="116" type="curve" smooth="yes"/>
      <point x="172" y="218" type="line"/>
      <point x="128" y="218" type="line"/>
      <point x="109" y="116" type="line" smooth="yes"/>
      <point x="83" y="0"/>
      <point x="74" y="-71"/>
      <point x="74" y="-105" type="curve" smooth="yes"/>
      <point x="74" y="-157"/>
      <point x="103" y="-182"/>
    </contour>
  </outline>
</glyph>
<glyph name="cent" format="2">
  <advance width="485"/>
  <unicode hex="00A2"/>
  <outline>
    <contour>
      <point x="298" y="-41" type="line"/>
      <point x="298" y="602" type="line"/>
      <point x="247" y="602" type="line"/>
      <point x="247" y="-41" type="line"/>
    </contour>
    <contour>
      <point x="279" y="476" type="curve" smooth="yes"/>
      <point x="313" y="476"/>
      <point x="341" y="471"/>
      <point x="375" y="455" type="curve"/>
      <point x="325" y="492" type="line"/>
      <point x="338" y="426" type="line" smooth="yes"/>
      <point x="349" y="369"/>
      <point x="370" y="351"/>
      <point x="405" y="351" type="curve" smooth="yes"/>
      <point x="433" y="351"/>
      <point x="448" y="364"/>
      <point x="454" y="392" type="curve"/>
      <point x="446" y="467"/>
      <point x="375" y="521"/>
      <point x="280" y="521" type="curve" smooth="yes"/>
      <point x="137" y="521"/>
      <point x="34" y="430"/>
      <point x="34" y="285" type="curve" smooth="yes"/>
      <point x="34" y="140"/>
      <point x="129" y="50"/>
      <point x="268" y="50" type="curve" smooth="yes"/>
      <point x="358" y="50"/>
      <point x="422" y="92"/>
      <point x="452" y="163" type="curve"/>
      <point x="424" y="186" type="line"/>
      <point x="391" y="145"/>
      <point x="342" y="119"/>
      <point x="283" y="119" type="curve" smooth="yes"/>
      <point x="212" y="119"/>
      <point x="154" y="184"/>
      <point x="154" y="296" type="curve" smooth="yes"/>
      <point x="154" y="412"/>
      <point x="207" y="476"/>
    </contour>
  </outline>
</glyph>
<glyph name="currency" format="2">
  <advance width="487"/>
  <unicode hex="00A4"/>
  <outline>
    <contour>
      <point x="352" y="390" type="line"/>
      <point x="401" y="415" type="line" smooth="yes"/>
      <point x="438" y="437"/>
      <point x="463" y="456"/>
      <point x="463" y="480" type="curve" smooth="yes"/>
      <point x="463" y="502"/>
      <point x="445" y="518"/>
      <point x="425" y="518" type="curve" smooth="yes"/>
      <point x="400" y="518"/>
      <point x="381" y="494"/>
      <point x="360" y="457" type="curve" smooth="yes"/>
      <point x="333" y="408" type="line"/>
    </contour>
    <contour>
      <point x="149" y="299" type="curve" smooth="yes"/>
      <point x="149" y="357"/>
      <point x="193" y="398"/>
      <point x="243" y="398" type="curve" smooth="yes"/>
      <point x="295" y="398"/>
      <point x="337" y="357"/>
      <point x="337" y="299" type="curve" smooth="yes"/>
      <point x="337" y="240"/>
      <point x="295" y="200"/>
      <point x="243" y="200" type="curve" smooth="yes"/>
      <point x="193" y="200"/>
      <point x="149" y="240"/>
    </contour>
    <contour>
      <point x="83" y="299" type="curve" smooth="yes"/>
      <point x="83" y="205"/>
      <point x="157" y="140"/>
      <point x="243" y="140" type="curve" smooth="yes"/>
      <point x="330" y="140"/>
      <point x="402" y="205"/>
      <point x="402" y="299" type="curve" smooth="yes"/>
      <point x="402" y="394"/>
      <point x="330" y="458"/>
      <point x="243" y="458" type="curve" smooth="yes"/>
      <point x="157" y="458"/>
      <point x="83" y="394"/>
    </contour>
    <contour>
      <point x="153" y="407" type="line"/>
      <point x="126" y="457" type="line" smooth="yes"/>
      <point x="104" y="494"/>
      <point x="87" y="518"/>
      <point x="62" y="518" type="curve" smooth="yes"/>
      <point x="41" y="518"/>
      <point x="23" y="501"/>
      <point x="23" y="480" type="curve" smooth="yes"/>
      <point x="23" y="456"/>
      <point x="48" y="437"/>
      <point x="86" y="415" type="curve" smooth="yes"/>
      <point x="134" y="390" type="line"/>
    </contour>
    <contour>
      <point x="135" y="208" type="line"/>
      <point x="86" y="182" type="line" smooth="yes"/>
      <point x="48" y="161"/>
      <point x="23" y="143"/>
      <point x="23" y="117" type="curve" smooth="yes"/>
      <point x="23" y="97"/>
      <point x="41" y="80"/>
      <point x="62" y="80" type="curve" smooth="yes"/>
      <point x="87" y="80"/>
      <point x="105" y="103"/>
      <point x="126" y="142" type="curve" smooth="yes"/>
      <point x="153" y="190" type="line"/>
    </contour>
    <contour>
      <point x="333" y="191" type="line"/>
      <point x="360" y="142" type="line" smooth="yes"/>
      <point x="382" y="103"/>
      <point x="400" y="80"/>
      <point x="425" y="80" type="curve" smooth="yes"/>
      <point x="446" y="80"/>
      <point x="463" y="97"/>
      <point x="463" y="117" type="curve" smooth="yes"/>
      <point x="463" y="143"/>
      <point x="438" y="161"/>
      <point x="401" y="182" type="curve" smooth="yes"/>
      <point x="352" y="208" type="line"/>
    </contour>
  </outline>
</glyph>
<glyph name="ordfeminine" format="2">
  <advance width="325"/>
  <unicode hex="00AA"/>
  <outline>
    <contour>
      <point x="271" y="437" type="curve" smooth="yes"/>
      <point x="271" y="570" type="line" smooth="yes"/>
      <point x="271" y="650"/>
      <point x="240" y="681"/>
      <point x="166" y="681" type="curve" smooth="yes"/>
      <point x="86" y="681"/>
      <point x="36" y="648"/>
      <point x="31" y="599" type="curve"/>
      <point x="34" y="581"/>
      <point x="47" y="571"/>
      <point x="69" y="571" type="curve" smooth="yes"/>
      <point x="89" y="571"/>
      <point x="105" y="586"/>
      <point x="110" y="618" type="curve" smooth="yes"/>
      <point x="118" y="663" type="line"/>
      <point x="80" y="642" type="line"/>
      <point x="105" y="650"/>
      <point x="123" y="652"/>
      <point x="138" y="652" type="curve" smooth="yes"/>
      <point x="179" y="652"/>
      <point x="192" y="636"/>
      <point x="192" y="581" type="curve" smooth="yes"/>
      <point x="192" y="439" type="line"/>
      <point x="194" y="400"/>
      <point x="215" y="375"/>
      <point x="258" y="375" type="curve" smooth="yes"/>
      <point x="289" y="375"/>
      <point x="310" y="386"/>
      <point x="323" y="415" type="curve"/>
      <point x="309" y="427" type="line"/>
      <point x="300" y="418"/>
      <point x="295" y="414"/>
      <point x="287" y="414" type="curve" smooth="yes"/>
      <point x="276" y="414"/>
      <point x="271" y="422"/>
    </contour>
    <contour>
      <point x="100" y="464" type="curve" smooth="yes"/>
      <point x="100" y="489"/>
      <point x="115" y="510"/>
      <point x="151" y="525" type="curve" smooth="yes"/>
      <point x="173" y="533"/>
      <point x="205" y="541"/>
      <point x="233" y="549" type="curve"/>
      <point x="233" y="573" type="line"/>
      <point x="204" y="565"/>
      <point x="163" y="555"/>
      <point x="136" y="547" type="curve" smooth="yes"/>
      <point x="45" y="521"/>
      <point x="22" y="490"/>
      <point x="22" y="450" type="curve" smooth="yes"/>
      <point x="22" y="402"/>
      <point x="57" y="374"/>
      <point x="103" y="374" type="curve" smooth="yes"/>
      <point x="145" y="374"/>
      <point x="165" y="393"/>
      <point x="197" y="425" type="curve" smooth="yes"/>
      <point x="221" y="449" type="line"/>
      <point x="214" y="459" type="line"/>
      <point x="195" y="446" type="line" smooth="yes"/>
      <point x="167" y="426"/>
      <point x="157" y="419"/>
      <point x="141" y="419" type="curve" smooth="yes"/>
      <point x="120" y="419"/>
      <point x="100" y="432"/>
    </contour>
  </outline>
</glyph>
<glyph name="registered" format="2">
  <advance width="428"/>
  <unicode hex="00AE"/>
  <outline>
    <contour>
      <point x="67" y="471" type="curve" smooth="yes"/>
      <point x="67" y="564"/>
      <point x="133" y="620"/>
      <point x="214" y="620" type="curve" smooth="yes"/>
      <point x="294" y="620"/>
      <point x="361" y="564"/>
      <point x="361" y="471" type="curve" smooth="yes"/>
      <point x="361" y="380"/>
      <point x="294" y="322"/>
      <point x="214" y="322" type="curve" smooth="yes"/>
      <point x="133" y="322"/>
      <point x="67" y="380"/>
    </contour>
    <contour>
      <point x="150" y="385" type="line"/>
      <point x="198" y="385" type="line"/>
      <point x="198" y="567" type="line"/>
      <point x="150" y="567" type="line"/>
    </contour>
    <contour>
      <point x="170" y="406" type="line"/>
      <point x="128" y="402" type="line"/>
      <point x="128" y="385" type="line"/>
      <point x="221" y="385" type="line"/>
      <point x="221" y="402" type="line"/>
      <point x="178" y="406" type="line"/>
    </contour>
    <contour>
      <point x="170" y="545" type="line"/>
      <point x="175" y="545" type="line"/>
      <point x="175" y="567" type="line"/>
      <point x="128" y="567" type="line"/>
      <point x="128" y="550" type="line"/>
    </contour>
    <contour>
      <point x="27" y="471" type="curve" smooth="yes"/>
      <point x="27" y="357"/>
      <point x="113" y="287"/>
      <point x="214" y="287" type="curve" smooth="yes"/>
      <point x="315" y="287"/>
      <point x="401" y="357"/>
      <point x="401" y="471" type="curve" smooth="yes"/>
      <point x="401" y="587"/>
      <point x="314" y="655"/>
      <point x="214" y="655" type="curve" smooth="yes"/>
      <point x="114" y="655"/>
      <point x="27" y="587"/>
    </contour>
    <contour>
      <point x="313" y="402" type="line"/>
      <point x="268" y="406" type="line"/>
      <point x="294" y="390" type="line"/>
      <point x="287" y="435" type="line" smooth="yes"/>
      <point x="282" y="462"/>
      <point x="264" y="477"/>
      <point x="220" y="477" type="curve"/>
      <point x="213" y="473" type="line"/>
      <point x="272" y="474"/>
      <point x="289" y="498"/>
      <point x="289" y="521" type="curve" smooth="yes"/>
      <point x="289" y="549"/>
      <point x="264" y="567"/>
      <point x="219" y="567" type="curve" smooth="yes"/>
      <point x="175" y="567" type="line"/>
      <point x="175" y="549" type="line"/>
      <point x="207" y="549" type="line" smooth="yes"/>
      <point x="230" y="549"/>
      <point x="242" y="539"/>
      <point x="242" y="517" type="curve" smooth="yes"/>
      <point x="242" y="499"/>
      <point x="234" y="483"/>
      <point x="207" y="483" type="curve" smooth="yes"/>
      <point x="175" y="483" type="line"/>
      <point x="175" y="466" type="line"/>
      <point x="208" y="466" type="line" smooth="yes"/>
      <point x="225" y="466"/>
      <point x="233" y="458"/>
      <point x="236" y="442" type="curve" smooth="yes"/>
      <point x="241" y="409" type="line" smooth="yes"/>
      <point x="244" y="387"/>
      <point x="258" y="380"/>
      <point x="282" y="380" type="curve" smooth="yes"/>
      <point x="295" y="380"/>
      <point x="299" y="381"/>
      <point x="313" y="385" type="curve"/>
    </contour>
  </outline>
</glyph>
<glyph name="degree" format="2">
  <advance width="301"/>
  <unicode hex="00B0"/>
  <outline>
    <contour>
      <point x="150" y="421" type="curve" smooth="yes"/>
      <point x="108" y="421"/>
      <point x="76" y="453"/>
      <point x="76" y="502" type="curve" smooth="yes"/>
      <point x="76" y="550"/>
      <point x="108" y="583"/>
      <point x="150" y="583" type="curve" smooth="yes"/>
      <point x="193" y="583"/>
      <point x="225" y="550"/>
      <point x="225" y="502" type="curve" smooth="yes"/>
      <point x="225" y="453"/>
      <point x="193" y="421"/>
    </contour>
    <contour>
      <point x="150" y="380" type="curve" smooth="yes"/>
      <point x="214" y="380"/>
      <point x="271" y="426"/>
      <point x="271" y="502" type="curve" smooth="yes"/>
      <point x="271" y="576"/>
      <point x="214" y="624"/>
      <point x="150" y="624" type="curve" smooth="yes"/>
      <point x="87" y="624"/>
      <point x="30" y="576"/>
      <point x="30" y="502" type="curve" smooth="yes"/>
      <point x="30" y="426"/>
      <point x="87" y="380"/>
    </contour>
  </outline>
</glyph>
<glyph name="three.sups" format="2">
  <advance width="342"/>
  <unicode hex="00B3"/>
  <outline>
    <contour>
      <point x="115" y="587" type="line"/>
      <point x="115" y="552" type="line"/>
      <point x="138" y="552" type="line" smooth="yes"/>
      <point x="191" y="552"/>
      <point x="216" y="528"/>
      <point x="216" y="482" type="curve" smooth="yes"/>
      <point x="216" y="430"/>
      <point x="187" y="403"/>
      <point x="136" y="403" type="curve" smooth="yes"/>
      <point x="120" y="403"/>
      <point x="108" y="406"/>
      <point x="92" y="412" type="curve"/>
      <point x="120" y="387" type="line"/>
      <point x="112" y="443" type="line" smooth="yes"/>
      <point x="106" y="481"/>
      <point x="91" y="491"/>
      <point x="69" y="491" type="curve" smooth="yes"/>
      <point x="56" y="491"/>
      <point x="41" y="484"/>
      <point x="34" y="466" type="curve"/>
      <point x="39" y="407"/>
      <point x="82" y="372"/>
      <point x="163" y="372" type="curve" smooth="yes"/>
      <point x="245" y="372"/>
      <point x="306" y="409"/>
      <point x="306" y="478" type="curve" smooth="yes"/>
      <point x="306" y="537"/>
      <point x="268" y="573"/>
      <point x="181" y="576" type="curve"/>
      <point x="184" y="568" type="line"/>
      <point x="255" y="573"/>
      <point x="292" y="614"/>
      <point x="292" y="660" type="curve" smooth="yes"/>
      <point x="292" y="713"/>
      <point x="248" y="752"/>
      <point x="168" y="752" type="curve" smooth="yes"/>
      <point x="106" y="752"/>
      <point x="53" y="724"/>
      <point x="50" y="662" type="curve"/>
      <point x="57" y="651"/>
      <point x="69" y="644"/>
      <point x="83" y="644" type="curve" smooth="yes"/>
      <point x="102" y="644"/>
      <point x="120" y="655"/>
      <point x="125" y="683" type="curve" smooth="yes"/>
      <point x="134" y="735" type="line"/>
      <point x="100" y="713" type="line"/>
      <point x="119" y="718"/>
      <point x="134" y="721"/>
      <point x="145" y="721" type="curve" smooth="yes"/>
      <point x="183" y="721"/>
      <point x="207" y="699"/>
      <point x="207" y="655" type="curve" smooth="yes"/>
      <point x="207" y="609"/>
      <point x="181" y="587"/>
      <point x="135" y="587" type="curve" smooth="yes"/>
    </contour>
  </outline>
</glyph>
<glyph name="mu" format="2">
  <advance width="535"/>
  <unicode hex="00B5"/>
  <outline>
    <contour>
      <point x="59" y="-162" type="line"/>
      <point x="74" y="-177" type="line"/>
      <point x="185" y="-152" type="line"/>
      <point x="158" y="72" type="line"/>
      <point x="176" y="95" type="line"/>
      <point x="176" y="179"/>
      <point x="182" y="259"/>
      <point x="191" y="446" type="curve"/>
      <point x="178" y="455" type="line"/>
      <point x="64" y="431" type="line"/>
      <point x="84" y="98" type="line"/>
    </contour>
    <contour>
      <point x="241" y="-12" type="curve" smooth="yes"/>
      <point x="299" y="-12"/>
      <point x="345" y="34"/>
      <point x="368" y="140" type="curve"/>
      <point x="352" y="154" type="line"/>
      <point x="328" y="94"/>
      <point x="294" y="79"/>
      <point x="255" y="79" type="curve" smooth="yes"/>
      <point x="224" y="79"/>
      <point x="194" y="93"/>
      <point x="172" y="141" type="curve"/>
      <point x="147" y="79" type="line"/>
      <point x="165" y="16"/>
      <point x="204" y="-12"/>
    </contour>
    <contour>
      <point x="434" y="-12" type="curve" smooth="yes"/>
      <point x="478" y="-12"/>
      <point x="509" y="9"/>
      <point x="528" y="43" type="curve"/>
      <point x="517" y="73" type="line"/>
      <point x="506" y="69"/>
      <point x="495" y="66"/>
      <point x="483" y="66" type="curve" smooth="yes"/>
      <point x="456" y="66"/>
      <point x="446" y="78"/>
      <point x="445" y="129" type="curve" smooth="yes"/>
      <point x="444" y="186"/>
      <point x="450" y="255"/>
      <point x="463" y="446" type="curve"/>
      <point x="451" y="455" type="line"/>
      <point x="337" y="431" type="line"/>
      <point x="346" y="106" type="line"/>
      <point x="351" y="31"/>
      <point x="378" y="-12"/>
    </contour>
  </outline>
</glyph>
<glyph name="paragraph" format="2">
  <advance width="383"/>
  <unicode hex="00B6"/>
  <outline>
    <contour>
      <point x="368" y="580" type="line"/>
      <point x="368" y="540" type="line"/>
      <point x="341" y="540" type="line"/>
      <point x="341" y="-107" type="line"/>
      <point x="293" y="-107" type="line"/>
      <point x="293" y="540" type="line"/>
      <point x="235" y="540" type="line"/>
      <point x="235" y="-107" type="line"/>
      <point x="188" y="-107" type="line"/>
      <point x="188" y="259" type="line"/>
      <point x="87" y="262"/>
      <point x="10" y="314"/>
      <point x="10" y="424" type="curve" smooth="yes"/>
      <point x="10" y="535"/>
      <point x="87" y="580"/>
      <point x="188" y="580" type="curve" smooth="yes"/>
    </contour>
  </outline>
</glyph>
<glyph name="cedilla" format="2">
  <advance width="368"/>
  <unicode hex="00B8"/>
  <anchor x="158" y="0" name="_baseLC"/>
  <outline>
    <contour>
      <point x="127" y="-80" type="line"/>
      <point x="168" y="-85"/>
      <point x="188" y="-98"/>
      <point x="188" y="-126" type="curve" smooth="yes"/>
      <point x="188" y="-148"/>
      <point x="172" y="-162"/>
      <point x="138" y="-162" type="curve" smooth="yes"/>
      <point x="122" y="-162"/>
      <point x="107" y="-161"/>
      <point x="91" y="-157" type="curve"/>
      <point x="82" y="-194" type="line"/>
      <point x="100" y="-201"/>
      <point x="121" y="-206"/>
      <point x="149" y="-206" type="curve" smooth="yes"/>
      <point x="227" y="-206"/>
      <point x="266" y="-172"/>
      <point x="266" y="-126" type="curve" smooth="yes"/>
      <point x="266" y="-81"/>
      <point x="226" y="-51"/>
      <point x="149" y="-46" type="curve"/>
      <point x="174" y="-68" type="line"/>
      <point x="184" y="3" type="line"/>
      <point x="139" y="3" type="line"/>
    </contour>
  </outline>
</glyph>
<glyph name="guillemotright" format="2">
  <advance width="487"/>
  <unicode hex="00BB"/>
  <outline>
    <contour>
      <point x="60" y="430" type="line"/>
      <point x="32" y="400" type="line"/>
      <point x="196" y="203" type="line"/>
      <point x="196" y="261" type="line"/>
      <point x="32" y="64" type="line"/>
      <point x="60" y="34" type="line"/>
      <point x="266" y="204" type="line"/>
      <point x="266" y="260" type="line"/>
    </contour>
    <contour>
      <point x="256" y="430" type="line"/>
      <point x="227" y="400" type="line"/>
      <point x="391" y="203" type="line"/>
      <point x="391" y="261" type="line"/>
      <point x="227" y="64" type="line"/>
      <point x="256" y="34" type="line"/>
      <point x="461" y="204" type="line"/>
      <point x="461" y="260" type="line"/>
    </contour>
  </outline>
</glyph>
<glyph name="onequarter" format="2">
  <advance width="800"/>
  <unicode hex="00BC"/>
  <outline>
    <contour>
      <point x="233" y="-27" type="line"/>
      <point x="650" y="582" type="line"/>
      <point x="611" y="609" type="line"/>
      <point x="195" y="0" type="line"/>
    </contour>
    <contour>
      <point x="66" y="563" type="line"/>
      <point x="66" y="527" type="line"/>
      <point x="133" y="534" type="line"/>
      <point x="133" y="229" type="line"/>
      <point x="221" y="229" type="line"/>
      <point x="221" y="591" type="line"/>
      <point x="213" y="597" type="line"/>
    </contour>
    <contour>
      <point x="218" y="273" type="line"/>
      <point x="138" y="273" type="line"/>
      <point x="57" y="256" type="line"/>
      <point x="57" y="229" type="line"/>
      <point x="293" y="229" type="line"/>
      <point x="293" y="256" type="line"/>
    </contour>
    <contour>
      <point x="437" y="85" type="line"/>
      <point x="724" y="85" type="line"/>
      <point x="724" y="148" type="line"/>
      <point x="465" y="148" type="line"/>
      <point x="475" y="131" type="line"/>
      <point x="609" y="313" type="line"/>
      <point x="591" y="313" type="line"/>
      <point x="591" y="0" type="line"/>
      <point x="668" y="0" type="line"/>
      <point x="668" y="363" type="line"/>
      <point x="609" y="363" type="line"/>
      <point x="437" y="136" type="line"/>
    </contour>
  </outline>
</glyph>
<glyph name="questiondown" format="2">
  <advance width="402"/>
  <unicode hex="00BF"/>
  <outline>
    <contour>
      <point x="252" y="464" type="curve" smooth="yes"/>
      <point x="207" y="464"/>
      <point x="174" y="430"/>
      <point x="174" y="388" type="curve" smooth="yes"/>
      <point x="174" y="345"/>
      <point x="207" y="310"/>
      <point x="252" y="310" type="curve" smooth="yes"/>
      <point x="294" y="310"/>
      <point x="329" y="345"/>
      <point x="329" y="388" type="curve" smooth="yes"/>
      <point x="329" y="430"/>
      <point x="294" y="464"/>
    </contour>
    <contour>
      <point x="56" y="35" type="curve" smooth="yes"/>
      <point x="56" y="-67"/>
      <point x="177" y="-155"/>
      <point x="276" y="-172" type="curve"/>
      <point x="318" y="-161"/>
      <point x="338" y="-142"/>
      <point x="338" y="-110" type="curve" smooth="yes"/>
      <point x="338" y="-80"/>
      <point x="323" y="-57"/>
      <point x="260" y="-47" type="curve" smooth="yes"/>
      <point x="96" y="-22" type="line"/>
      <point x="172" y="-82" type="line"/>
      <point x="142" y="-49"/>
      <point x="121" y="-19"/>
      <point x="121" y="11" type="curve" smooth="yes"/>
      <point x="121" y="36"/>
      <point x="135" y="50"/>
      <point x="167" y="59" type="curve" smooth="yes"/>
      <point x="230" y="75" type="line" smooth="yes"/>
      <point x="283" y="90"/>
      <point x="304" y="106"/>
      <point x="304" y="138" type="curve" smooth="yes"/>
      <point x="304" y="155"/>
      <point x="299" y="175"/>
      <point x="288" y="210" type="curve" smooth="yes"/>
      <point x="277" y="245" type="line"/>
      <point x="230" y="245" type="line"/>
      <point x="230" y="210" type="line" smooth="yes"/>
      <point x="228" y="184"/>
      <point x="222" y="179"/>
      <point x="190" y="169" type="curve" smooth="yes"/>
      <point x="153" y="157" type="line" smooth="yes"/>
      <point x="85" y="136"/>
      <point x="56" y="98"/>
    </contour>
  </outline>
</glyph>
<glyph name="Aring" format="2">
  <advance width="617"/>
  <unicode hex="00C5"/>
  <anchor x="311" y="839" name="aboveUC"/>
  <anchor x="281" y="-20" name="belowLC"/>
  <anchor x="510" y="0" name="ogonek"/>
  <outline>
    <contour>
      <point x="7" y="0" type="line"/>
      <point x="208" y="0" type="line"/>
      <point x="208" y="45" type="line"/>
      <point x="117" y="58" type="line"/>
      <point x="100" y="58" type="line"/>
      <point x="7" y="45" type="line"/>
    </contour>
    <contour>
      <point x="62" y="0" type="line"/>
      <point x="113" y="0" type="line"/>
      <point x="272" y="481" type="line"/>
      <point x="428" y="0" type="line"/>
      <point x="563" y="0" type="line"/>
      <point x="355" y="609" type="line"/>
      <point x="272" y="609" type="line"/>
    </contour>
    <contour>
      <point x="155" y="184" type="line"/>
      <point x="437" y="184" type="line"/>
      <point x="419" y="233" type="line"/>
      <point x="171" y="233" type="line"/>
    </contour>
    <contour>
      <point x="333" y="0" type="line"/>
      <point x="606" y="0" type="line"/>
      <point x="606" y="44" type="line"/>
      <point x="489" y="57" type="line"/>
      <point x="441" y="57" type="line"/>
      <point x="333" y="44" type="line"/>
    </contour>
    <contour>
      <point x="311" y="651" type="curve" smooth="yes"/>
      <point x="362" y="651"/>
      <point x="404" y="684"/>
      <point x="404" y="740" type="curve" smooth="yes"/>
      <point x="404" y="796"/>
      <point x="362" y="829"/>
      <point x="311" y="829" type="curve" smooth="yes"/>
      <point x="262" y="829"/>
      <point x="219" y="794"/>
      <point x="219" y="740" type="curve" smooth="yes"/>
      <point x="219" y="684"/>
      <point x="262" y="651"/>
    </contour>
    <contour>
      <point x="311" y="690" type="curve" smooth="yes"/>
      <point x="282" y="690"/>
      <point x="264" y="713"/>
      <point x="264" y="740" type="curve" smooth="yes"/>
      <point x="264" y="767"/>
      <point x="283" y="789"/>
      <point x="311" y="789" type="curve" smooth="yes"/>
      <point x="341" y="789"/>
      <point x="359" y="767"/>
      <point x="359" y="740" type="curve" smooth="yes"/>
      <point x="359" y="713"/>
      <point x="341" y="690"/>
    </contour>
  </outline>
</glyph>
<glyph name="Egrave" format="2">
  <advance width="550"/>
  <unicode hex="00C8"/>
  <anchor x="265" y="808" name="aboveUC"/>
  <anchor x="310" y="-20" name="belowLC"/>
  <anchor x="429" y="0" name="ogonek"/>
  <outline>
    <contour>
      <point x="34" y="0" type="line"/>
      <point x="175" y="0" type="line"/>
      <point x="175" y="58" type="line"/>
      <point x="162" y="58" type="line"/>
      <point x="34" y="45" type="line"/>
    </contour>
    <contour>
      <point x="109" y="188"/>
      <point x="109" y="92"/>
      <point x="106" y="0" type="curve"/>
      <point x="244" y="0" type="line"/>
      <point x="241" y="94"/>
      <point x="241" y="190"/>
      <point x="241" y="291" type="curve" smooth="yes"/>
      <point x="241" y="322" type="line" smooth="yes"/>
      <point x="241" y="419"/>
      <point x="241" y="515"/>
      <point x="244" y="608" type="curve"/>
      <point x="106" y="608" type="line"/>
      <point x="109" y="513"/>
      <point x="109" y="417"/>
      <point x="109" y="322" type="curve" smooth="yes"/>
      <point x="109" y="285" type="line" smooth="yes"/>
    </contour>
    <contour>
      <point x="175" y="0" type="line"/>
      <point x="517" y="0" type="line"/>
      <point x="524" y="160" type="line"/>
      <point x="455" y="160" type="line"/>
      <point x="432" y="22" type="line"/>
      <point x="464" y="49" type="line"/>
      <point x="175" y="49" type="line"/>
    </contour>
    <contour>
      <point x="175" y="287" type="line"/>
      <point x="379" y="287" type="line"/>
      <point x="379" y="338" type="line"/>
      <point x="175" y="338" type="line"/>
    </contour>
    <contour>
      <point x="365" y="210" type="line"/>
      <point x="414" y="210" type="line"/>
      <point x="414" y="415" type="line"/>
      <point x="365" y="415" type="line"/>
      <point x="351" y="323" type="line"/>
      <point x="351" y="307" type="line"/>
    </contour>
    <contour>
      <point x="34" y="563" type="line"/>
      <point x="162" y="549" type="line"/>
      <point x="175" y="549" type="line"/>
      <point x="175" y="608" type="line"/>
      <point x="34" y="608" type="line"/>
    </contour>
    <contour>
      <point x="437" y="448" type="line"/>
      <point x="506" y="448" type="line"/>
      <point x="499" y="608" type="line"/>
      <point x="175" y="608" type="line"/>
      <point x="175" y="558" type="line"/>
      <point x="446" y="558" type="line"/>
      <point x="414" y="586" type="line"/>
    </contour>
    <contour>
      <point x="341" y="678" type="line"/>
      <point x="309" y="711"/>
      <point x="276" y="742"/>
      <point x="244" y="772" type="curve" smooth="yes"/>
      <point x="216" y="800"/>
      <point x="199" y="808"/>
      <point x="179" y="808" type="curve" smooth="yes"/>
      <point x="153" y="808"/>
      <point x="134" y="789"/>
      <point x="134" y="767" type="curve" smooth="yes"/>
      <point x="134" y="749"/>
      <point x="144" y="728"/>
      <point x="185" y="709" type="curve" smooth="yes"/>
      <point x="230" y="688"/>
      <point x="275" y="667"/>
      <point x="318" y="646" type="curve"/>
    </contour>
  </outline>
</glyph>
<glyph name="Ograve" format="2">
  <advance width="646"/>
  <unicode hex="00D2"/>
  <anchor x="313" y="810" name="aboveUC"/>
  <anchor x="323" y="-20" name="belowLC"/>
  <anchor x="459" y="609" name="hornLC"/>
  <anchor x="406" y="0" name="ogonek"/>
  <outline>
    <contour>
      <point x="323" y="-16" type="curve" smooth="yes"/>
      <point x="472" y="-16"/>
      <point x="611" y="95"/>
      <point x="611" y="304" type="curve" smooth="yes"/>
      <point x="611" y="517"/>
      <point x="471" y="624"/>
      <point x="323" y="624" type="curve" smooth="yes"/>
      <point x="175" y="624"/>
      <point x="34" y="513"/>
      <point x="34" y="304" type="curve" smooth="yes"/>
      <point x="34" y="91"/>
      <point x="174" y="-16"/>
    </contour>
    <contour>
      <point x="323" y="34" type="curve" smooth="yes"/>
      <point x="219" y="34"/>
      <point x="176" y="155"/>
      <point x="176" y="304" type="curve" smooth="yes"/>
      <point x="176" y="451"/>
      <point x="219" y="573"/>
      <point x="323" y="573" type="curve" smooth="yes"/>
      <point x="427" y="573"/>
      <point x="470" y="451"/>
      <point x="470" y="304" type="curve" smooth="yes"/>
      <point x="470" y="155"/>
      <point x="427" y="34"/>
    </contour>
    <contour>
      <point x="390" y="680" type="line"/>
      <point x="357" y="712"/>
      <point x="324" y="744"/>
      <point x="292" y="774" type="curve" smooth="yes"/>
      <point x="264" y="801"/>
      <point x="247" y="810"/>
      <point x="228" y="810" type="curve" smooth="yes"/>
      <point x="203" y="810"/>
      <point x="184" y="791"/>
      <point x="184" y="769" type="curve" smooth="yes"/>
      <point x="184" y="751"/>
      <point x="193" y="729"/>
      <point x="234" y="711" type="curve" smooth="yes"/>
      <point x="278" y="690"/>
      <point x="322" y="668"/>
      <point x="368" y="648" type="curve"/>
    </contour>
  </outline>
</glyph>
<glyph name="Otilde" format="2">
  <advance width="646"/>
  <unicode hex="00D5"/>
  <anchor x="323" y="805" name="aboveUC"/>
  <anchor x="323" y="-20" name="belowLC"/>
  <anchor x="459" y="609" name="hornLC"/>
  <anchor x="406" y="0" name="ogonek"/>
  <outline>
    <contour>
      <point x="323" y="-16" type="curve" smooth="yes"/>
      <point x="472" y="-16"/>
      <point x="611" y="95"/>
      <point x="611" y="304" type="curve" smooth="yes"/>
      <point x="611" y="517"/>
      <point x="471" y="624"/>
      <point x="323" y="624" type="curve" smooth="yes"/>
      <point x="175" y="624"/>
      <point x="34" y="513"/>
      <point x="34" y="304" type="curve" smooth="yes"/>
      <point x="34" y="91"/>
      <point x="174" y="-16"/>
    </contour>
    <contour>
      <point x="323" y="34" type="curve" smooth="yes"/>
      <point x="219" y="34"/>
      <point x="176" y="155"/>
      <point x="176" y="304" type="curve" smooth="yes"/>
      <point x="176" y="451"/>
      <point x="219" y="573"/>
      <point x="323" y="573" type="curve" smooth="yes"/>
      <point x="427" y="573"/>
      <point x="470" y="451"/>
      <point x="470" y="304" type="curve" smooth="yes"/>
      <point x="470" y="155"/>
      <point x="427" y="34"/>
    </contour>
    <contour>
      <point x="157" y="671" type="curve"/>
      <point x="192" y="657" type="line"/>
      <point x="205" y="695"/>
      <point x="223" y="718"/>
      <point x="252" y="718" type="curve" smooth="yes"/>
      <point x="277" y="718"/>
      <point x="296" y="698"/>
      <point x="317" y="683" type="curve" smooth="yes"/>
      <point x="336" y="669"/>
      <point x="360" y="657"/>
      <point x="390" y="657" type="curve" smooth="yes"/>
      <point x="444" y="657"/>
      <point x="479" y="704"/>
      <point x="491" y="782" type="curve"/>
      <point x="456" y="795" type="line"/>
      <point x="442" y="758"/>
      <point x="424" y="735"/>
      <point x="395" y="735" type="curve" smooth="yes"/>
      <point x="370" y="735"/>
      <point x="351" y="754"/>
      <point x="333" y="767" type="curve" smooth="yes"/>
      <point x="310" y="782"/>
      <point x="289" y="795"/>
      <point x="259" y="795" type="curve" smooth="yes"/>
      <point x="204" y="795"/>
      <point x="167" y="749"/>
    </contour>
  </outline>
</glyph>
<glyph name="Odieresis" format="2">
  <advance width="646"/>
  <unicode hex="00D6"/>
  <anchor x="323" y="793" name="aboveUC"/>
  <anchor x="323" y="-20" name="belowLC"/>
  <anchor x="459" y="609" name="hornLC"/>
  <anchor x="406" y="0" name="ogonek"/>
  <outline>
    <contour>
      <point x="323" y="-16" type="curve" smooth="yes"/>
      <point x="472" y="-16"/>
      <point x="611" y="95"/>
      <point x="611" y="304" type="curve" smooth="yes"/>
      <point x="611" y="517"/>
      <point x="471" y="624"/>
      <point x="323" y="624" type="curve" smooth="yes"/>
      <point x="175" y="624"/>
      <point x="34" y="513"/>
      <point x="34" y="304" type="curve" smooth="yes"/>
      <point x="34" y="91"/>
      <point x="174" y="-16"/>
    </contour>
    <contour>
      <point x="323" y="34" type="curve" smooth="yes"/>
      <point x="219" y="34"/>
      <point x="176" y="155"/>
      <point x="176" y="304" type="curve" smooth="yes"/>
      <point x="176" y="451"/>
      <point x="219" y="573"/>
      <point x="323" y="573" type="curve" smooth="yes"/>
      <point x="427" y="573"/>
      <point x="470" y="451"/>
      <point x="470" y="304" type="curve" smooth="yes"/>
      <point x="470" y="155"/>
      <point x="427" y="34"/>
    </contour>
    <contour>
      <point x="212" y="665" type="curve" smooth="yes"/>
      <point x="247" y="665"/>
      <point x="275" y="688"/>
      <point x="275" y="724" type="curve" smooth="yes"/>
      <point x="275" y="760"/>
      <point x="247" y="783"/>
      <point x="212" y="783" type="curve" smooth="yes"/>
      <point x="180" y="783"/>
      <point x="149" y="760"/>
      <point x="149" y="724" type="curve" smooth="yes"/>
      <point x="149" y="688"/>
      <point x="180" y="665"/>
    </contour>
    <contour>
      <point x="434" y="665" type="curve" smooth="yes"/>
      <point x="468" y="665"/>
      <point x="496" y="688"/>
      <point x="496" y="724" type="curve" smooth="yes"/>
      <point x="496" y="760"/>
      <point x="468" y="783"/>
      <point x="434" y="783" type="curve" smooth="yes"/>
      <point x="401" y="783"/>
      <point x="371" y="760"/>
      <point x="371" y="724" type="curve" smooth="yes"/>
      <point x="371" y="688"/>
      <point x="401" y="665"/>
    </contour>
  </outline>
</glyph>
<glyph name="Oslash" format="2">
  <advance width="646"/>
  <unicode hex="00D8"/>
  <anchor x="323" y="632" name="aboveUC"/>
  <outline>
    <contour>
      <point x="598" y="597" type="line"/>
      <point x="551" y="635" type="line"/>
      <point x="45" y="11" type="line"/>
      <point x="92" y="-27" type="line"/>
    </contour>
    <contour>
      <point x="167" y="304" type="curve" smooth="yes"/>
      <point x="167" y="451"/>
      <point x="212" y="573"/>
      <point x="323" y="573" type="curve" smooth="yes"/>
      <point x="435" y="573"/>
      <point x="479" y="451"/>
      <point x="479" y="304" type="curve" smooth="yes"/>
      <point x="479" y="155"/>
      <point x="435" y="34"/>
      <point x="323" y="34" type="curve" smooth="yes"/>
      <point x="212" y="34"/>
      <point x="167" y="155"/>
    </contour>
    <contour>
      <point x="323" y="624" type="curve" smooth="yes"/>
      <point x="175" y="624"/>
      <point x="34" y="513"/>
      <point x="34" y="304" type="curve" smooth="yes"/>
      <point x="34" y="91"/>
      <point x="174" y="-16"/>
      <point x="323" y="-16" type="curve" smooth="yes"/>
      <point x="472" y="-16"/>
      <point x="611" y="95"/>
      <point x="611" y="304" type="curve" smooth="yes"/>
      <point x="611" y="517"/>
      <point x="471" y="624"/>
    </contour>
  </outline>
</glyph>
<glyph name="Uacute" format="2">
  <advance width="671"/>
  <unicode hex="00DA"/>
  <anchor x="372" y="804" name="aboveUC"/>
  <anchor x="348" y="-20" name="belowLC"/>
  <anchor x="552" y="625" name="hornLC"/>
  <anchor x="416" y="0" name="ogonek"/>
  <outline>
    <contour>
      <point x="101" y="53"/>
      <point x="197" y="-16"/>
      <point x="333" y="-16" type="curve" smooth="yes"/>
      <point x="475" y="-16"/>
      <point x="567" y="62"/>
      <point x="567" y="257" type="curve" smooth="yes"/>
      <point x="567" y="608" type="line"/>
      <point x="511" y="608" type="line"/>
      <point x="511" y="264" type="line" smooth="yes"/>
      <point x="511" y="117"/>
      <point x="460" y="61"/>
      <point x="371" y="61" type="curve" smooth="yes"/>
      <point x="282" y="61"/>
      <point x="233" y="111"/>
      <point x="233" y="258" type="curve" smooth="yes"/>
      <point x="233" y="329" type="line" smooth="yes"/>
      <point x="233" y="423"/>
      <point x="233" y="517"/>
      <point x="236" y="608" type="curve"/>
      <point x="98" y="608" type="line"/>
      <point x="101" y="515"/>
      <point x="101" y="421"/>
      <point x="101" y="329" type="curve" smooth="yes"/>
      <point x="101" y="229" type="line" smooth="yes"/>
    </contour>
    <contour>
      <point x="29" y="563" type="line"/>
      <point x="161" y="549" type="line"/>
      <point x="185" y="549" type="line"/>
      <point x="316" y="563" type="line"/>
      <point x="316" y="608" type="line"/>
      <point x="29" y="608" type="line"/>
    </contour>
    <contour>
      <point x="425" y="563" type="line"/>
      <point x="524" y="552" type="line"/>
      <point x="548" y="552" type="line"/>
      <point x="644" y="563" type="line"/>
      <point x="644" y="608" type="line"/>
      <point x="425" y="608" type="line"/>
    </contour>
    <contour>
      <point x="296" y="673" type="curve"/>
      <point x="318" y="642" type="line"/>
      <point x="363" y="663"/>
      <point x="408" y="683"/>
      <point x="452" y="705" type="curve" smooth="yes"/>
      <point x="493" y="724"/>
      <point x="502" y="745"/>
      <point x="502" y="762" type="curve" smooth="yes"/>
      <point x="502" y="784"/>
      <point x="483" y="804"/>
      <point x="458" y="804" type="curve" smooth="yes"/>
      <point x="438" y="804"/>
      <point x="421" y="795"/>
      <point x="392" y="767" type="curve" smooth="yes"/>
      <point x="361" y="737"/>
      <point x="328" y="706"/>
    </contour>
  </outline>
</glyph>
<glyph name="Udieresis" format="2">
  <advance width="671"/>
  <unicode hex="00DC"/>
  <anchor x="371" y="793" name="aboveUC"/>
  <anchor x="348" y="-20" name="belowLC"/>
  <anchor x="552" y="625" name="hornLC"/>
  <anchor x="416" y="0" name="ogonek"/>
  <outline>
    <contour>
      <point x="101" y="53"/>
      <point x="197" y="-16"/>
      <point x="333" y="-16" type="curve" smooth="yes"/>
      <point x="475" y="-16"/>
      <point x="567" y="62"/>
      <point x="567" y="257" type="curve" smooth="yes"/>
      <point x="567" y="608" type="line"/>
      <point x="511" y="608" type="line"/>
      <point x="511" y="264" type="line" smooth="yes"/>
      <point x="511" y="117"/>
      <point x="460" y="61"/>
      <point x="371" y="61" type="curve" smooth="yes"/>
      <point x="282" y="61"/>
      <point x="233" y="111"/>
      <point x="233" y="258" type="curve" smooth="yes"/>
      <point x="233" y="329" type="line" smooth="yes"/>
      <point x="233" y="423"/>
      <point x="233" y="517"/>
      <point x="236" y="608" type="curve"/>
      <point x="98" y="608" type="line"/>
      <point x="101" y="515"/>
      <point x="101" y="421"/>
      <point x="101" y="329" type="curve" smooth="yes"/>
      <point x="101" y="229" type="line" smooth="yes"/>
    </contour>
    <contour>
      <point x="29" y="563" type="line"/>
      <point x="161" y="549" type="line"/>
      <point x="185" y="549" type="line"/>
      <point x="316" y="563" type="line"/>
      <point x="316" y="608" type="line"/>
      <point x="29" y="608" type="line"/>
    </contour>
    <contour>
      <point x="425" y="563" type="line"/>
      <point x="524" y="552" type="line"/>
      <point x="548" y="552" type="line"/>
      <point x="644" y="563" type="line"/>
      <point x="644" y="608" type="line"/>
      <point x="425" y="608" type="line"/>
    </contour>
    <contour>
      <point x="260" y="665" type="curve" smooth="yes"/>
      <point x="294" y="665"/>
      <point x="322" y="688"/>
      <point x="322" y="724" type="curve" smooth="yes"/>
      <point x="322" y="760"/>
      <point x="294" y="783"/>
      <point x="260" y="783" type="curve" smooth="yes"/>
      <point x="227" y="783"/>
      <point x="197" y="760"/>
      <point x="197" y="724" type="curve" smooth="yes"/>
      <point x="197" y="688"/>
      <point x="227" y="665"/>
    </contour>
    <contour>
      <point x="481" y="665" type="curve" smooth="yes"/>
      <point x="515" y="665"/>
      <point x="544" y="688"/>
      <point x="544" y="724" type="curve" smooth="yes"/>
      <point x="544" y="760"/>
      <point x="515" y="783"/>
      <point x="481" y="783" type="curve" smooth="yes"/>
      <point x="448" y="783"/>
      <point x="418" y="760"/>
      <point x="418" y="724" type="curve" smooth="yes"/>
      <point x="418" y="688"/>
      <point x="448" y="665"/>
    </contour>
  </outline>
</glyph>
<glyph name="atilde" format="2">
  <advance width="482"/>
  <unicode hex="00E3"/>
  <anchor x="235" y="675" name="aboveLC"/>
  <anchor x="230" y="-20" name="belowLC"/>
  <anchor x="418" y="0" name="ogonek"/>
  <outline>
    <contour>
      <point x="33" y="27"/>
      <point x="83" y="-12"/>
      <point x="154" y="-12" type="curve" smooth="yes"/>
      <point x="218" y="-12"/>
      <point x="247" y="13"/>
      <point x="295" y="64" type="curve"/>
      <point x="330" y="64" type="line"/>
      <point x="319" y="115" type="line"/>
      <point x="250" y="64"/>
      <point x="234" y="56"/>
      <point x="211" y="56" type="curve" smooth="yes"/>
      <point x="177" y="56"/>
      <point x="150" y="77"/>
      <point x="150" y="124" type="curve" smooth="yes"/>
      <point x="150" y="161"/>
      <point x="172" y="194"/>
      <point x="227" y="217" type="curve" smooth="yes"/>
      <point x="253" y="228"/>
      <point x="305" y="242"/>
      <point x="347" y="253" type="curve"/>
      <point x="347" y="290" type="line"/>
      <point x="303" y="280"/>
      <point x="240" y="263"/>
      <point x="202" y="252" type="curve" smooth="yes"/>
      <point x="66" y="208"/>
      <point x="33" y="164"/>
      <point x="33" y="103" type="curve" smooth="yes"/>
    </contour>
    <contour>
      <point x="381" y="-11" type="curve" smooth="yes"/>
      <point x="429" y="-11"/>
      <point x="460" y="5"/>
      <point x="482" y="50" type="curve"/>
      <point x="460" y="68" type="line"/>
      <point x="448" y="53"/>
      <point x="440" y="47"/>
      <point x="429" y="47" type="curve" smooth="yes"/>
      <point x="414" y="47"/>
      <point x="404" y="57"/>
      <point x="404" y="83" type="curve" smooth="yes"/>
      <point x="404" y="286" type="line" smooth="yes"/>
      <point x="404" y="407"/>
      <point x="357" y="455"/>
      <point x="247" y="455" type="curve" smooth="yes"/>
      <point x="127" y="455"/>
      <point x="55" y="405"/>
      <point x="46" y="331" type="curve"/>
      <point x="52" y="303"/>
      <point x="71" y="288"/>
      <point x="102" y="288" type="curve" smooth="yes"/>
      <point x="134" y="288"/>
      <point x="159" y="310"/>
      <point x="162" y="360" type="curve" smooth="yes"/>
      <point x="174" y="429" type="line"/>
      <point x="120" y="395" type="line"/>
      <point x="158" y="407"/>
      <point x="183" y="410"/>
      <point x="205" y="410" type="curve" smooth="yes"/>
      <point x="264" y="410"/>
      <point x="283" y="386"/>
      <point x="283" y="301" type="curve" smooth="yes"/>
      <point x="283" y="78" type="line"/>
      <point x="288" y="22"/>
      <point x="322" y="-11"/>
    </contour>
    <contour>
      <point x="77" y="540" type="curve"/>
      <point x="110" y="527" type="line"/>
      <point x="122" y="564"/>
      <point x="139" y="587"/>
      <point x="166" y="587" type="curve" smooth="yes"/>
      <point x="190" y="587"/>
      <point x="208" y="568"/>
      <point x="228" y="552" type="curve" smooth="yes"/>
      <point x="247" y="538"/>
      <point x="269" y="526"/>
      <point x="297" y="526" type="curve" smooth="yes"/>
      <point x="348" y="526"/>
      <point x="383" y="574"/>
      <point x="393" y="651" type="curve"/>
      <point x="360" y="665" type="line"/>
      <point x="348" y="627"/>
      <point x="330" y="604"/>
      <point x="303" y="604" type="curve" smooth="yes"/>
      <point x="280" y="604"/>
      <point x="264" y="621"/>
      <point x="241" y="638" type="curve" smooth="yes"/>
      <point x="224" y="652"/>
      <point x="203" y="665"/>
      <point x="174" y="665" type="curve" smooth="yes"/>
      <point x="122" y="665"/>
      <point x="87" y="618"/>
    </contour>
  </outline>
</glyph>
<glyph name="egrave" format="2">
  <advance width="475"/>
  <unicode hex="00E8"/>
  <anchor x="246" y="690" name="aboveLC"/>
  <anchor x="264" y="-20" name="belowLC"/>
  <anchor x="327" y="0" name="ogonek"/>
  <outline>
    <contour>
      <point x="31" y="73"/>
      <point x="122" y="-12"/>
      <point x="253" y="-12" type="curve" smooth="yes"/>
      <point x="340" y="-12"/>
      <point x="403" y="23"/>
      <point x="439" y="93" type="curve"/>
      <point x="411" y="119" type="line"/>
      <point x="381" y="87"/>
      <point x="346" y="65"/>
      <point x="294" y="65" type="curve" smooth="yes"/>
      <point x="218" y="65"/>
      <point x="161" y="119"/>
      <point x="161" y="232" type="curve" smooth="yes"/>
      <point x="161" y="365"/>
      <point x="207" y="410"/>
      <point x="252" y="410" type="curve" smooth="yes"/>
      <point x="293" y="410"/>
      <point x="326" y="374"/>
      <point x="326" y="316" type="curve" smooth="yes"/>
      <point x="326" y="280"/>
      <point x="315" y="262"/>
      <point x="271" y="262" type="curve" smooth="yes"/>
      <point x="84" y="262" type="line"/>
      <point x="84" y="217" type="line"/>
      <point x="437" y="217" type="line"/>
      <point x="441" y="230"/>
      <point x="443" y="246"/>
      <point x="443" y="266" type="curve" smooth="yes"/>
      <point x="443" y="378"/>
      <point x="372" y="455"/>
      <point x="259" y="455" type="curve" smooth="yes"/>
      <point x="142" y="455"/>
      <point x="31" y="368"/>
      <point x="31" y="218" type="curve" smooth="yes"/>
    </contour>
    <contour>
      <point x="303" y="534" type="line"/>
      <point x="284" y="568"/>
      <point x="263" y="600"/>
      <point x="228" y="657" type="curve" smooth="yes"/>
      <point x="205" y="694"/>
      <point x="188" y="708"/>
      <point x="163" y="708" type="curve" smooth="yes"/>
      <point x="140" y="708"/>
      <point x="118" y="692"/>
      <point x="118" y="662" type="curve" smooth="yes"/>
      <point x="118" y="640"/>
      <point x="134" y="621"/>
      <point x="167" y="595" type="curve" smooth="yes"/>
      <point x="216" y="556"/>
      <point x="242" y="533"/>
      <point x="272" y="509" type="curve"/>
    </contour>
  </outline>
</glyph>
<glyph name="eacute" format="2">
  <advance width="475"/>
  <unicode hex="00E9"/>
  <anchor x="264" y="708" name="aboveLC"/>
  <anchor x="264" y="-20" name="belowLC"/>
  <anchor x="327" y="0" name="ogonek"/>
  <outline>
    <contour>
      <point x="31" y="73"/>
      <point x="122" y="-12"/>
      <point x="253" y="-12" type="curve" smooth="yes"/>
      <point x="340" y="-12"/>
      <point x="403" y="23"/>
      <point x="439" y="93" type="curve"/>
      <point x="411" y="119" type="line"/>
      <point x="381" y="87"/>
      <point x="346" y="65"/>
      <point x="294" y="65" type="curve" smooth="yes"/>
      <point x="218" y="65"/>
      <point x="161" y="119"/>
      <point x="161" y="232" type="curve" smooth="yes"/>
      <point x="161" y="365"/>
      <point x="207" y="410"/>
      <point x="252" y="410" type="curve" smooth="yes"/>
      <point x="293" y="410"/>
      <point x="326" y="374"/>
      <point x="326" y="316" type="curve" smooth="yes"/>
      <point x="326" y="280"/>
      <point x="315" y="262"/>
      <point x="271" y="262" type="curve" smooth="yes"/>
      <point x="84" y="262" type="line"/>
      <point x="84" y="217" type="line"/>
      <point x="437" y="217" type="line"/>
      <point x="441" y="230"/>
      <point x="443" y="246"/>
      <point x="443" y="266" type="curve" smooth="yes"/>
      <point x="443" y="378"/>
      <point x="372" y="455"/>
      <point x="259" y="455" type="curve" smooth="yes"/>
      <point x="142" y="455"/>
      <point x="31" y="368"/>
      <point x="31" y="218" type="curve" smooth="yes"/>
    </contour>
    <contour>
      <point x="202" y="534" type="curve"/>
      <point x="233" y="509" type="line"/>
      <point x="262" y="533"/>
      <point x="289" y="556"/>
      <point x="338" y="594" type="curve" smooth="yes"/>
      <point x="371" y="620"/>
      <point x="387" y="640"/>
      <point x="387" y="662" type="curve" smooth="yes"/>
      <point x="387" y="692"/>
      <point x="365" y="708"/>
      <point x="342" y="708" type="curve" smooth="yes"/>
      <point x="317" y="708"/>
      <point x="299" y="694"/>
      <point x="277" y="656" type="curve" smooth="yes"/>
      <point x="241" y="599"/>
      <point x="221" y="567"/>
    </contour>
  </outline>
</glyph>
<glyph name="iacute" format="2">
  <advance width="285"/>
  <unicode hex="00ED"/>
  <anchor x="164" y="708" name="aboveLC"/>
  <anchor x="147" y="-20" name="belowLC"/>
  <anchor x="179" y="0" name="ogonek"/>
  <outline>
    <contour>
      <point x="83" y="0" type="curve"/>
      <point x="212" y="0" type="line"/>
      <point x="210" y="41"/>
      <point x="209" y="136"/>
      <point x="209" y="193" type="curve" smooth="yes"/>
      <point x="209" y="314" type="line"/>
      <point x="212" y="446" type="line"/>
      <point x="197" y="455" type="line"/>
      <point x="22" y="396" type="line"/>
      <point x="22" y="360" type="line"/>
      <point x="83" y="352" type="line"/>
      <point x="85" y="315"/>
      <point x="86" y="287"/>
      <point x="86" y="236" type="curve" smooth="yes"/>
      <point x="86" y="193" type="line" smooth="yes"/>
      <point x="86" y="136"/>
      <point x="85" y="41"/>
    </contour>
    <contour>
      <point x="28" y="0" type="line"/>
      <point x="263" y="0" type="line"/>
      <point x="263" y="39" type="line"/>
      <point x="172" y="57" type="line"/>
      <point x="118" y="57" type="line"/>
      <point x="28" y="39" type="line"/>
    </contour>
    <contour>
      <point x="102" y="534" type="curve"/>
      <point x="133" y="509" type="line"/>
      <point x="161" y="533"/>
      <point x="189" y="556"/>
      <point x="238" y="594" type="curve" smooth="yes"/>
      <point x="270" y="620"/>
      <point x="287" y="640"/>
      <point x="287" y="662" type="curve" smooth="yes"/>
      <point x="287" y="692"/>
      <point x="264" y="708"/>
      <point x="241" y="708" type="curve" smooth="yes"/>
      <point x="216" y="708"/>
      <point x="198" y="694"/>
      <point x="176" y="656" type="curve" smooth="yes"/>
      <point x="140" y="599"/>
      <point x="121" y="567"/>
    </contour>
  </outline>
</glyph>
<glyph name="ntilde" format="2">
  <advance width="563"/>
  <unicode hex="00F1"/>
  <anchor x="281" y="675" name="aboveLC"/>
  <anchor x="291" y="-20" name="belowLC"/>
  <outline>
    <contour>
      <point x="361" y="0" type="curve"/>
      <point x="491" y="0" type="line"/>
      <point x="489" y="41"/>
      <point x="488" y="134"/>
      <point x="488" y="193" type="curve" smooth="yes"/>
      <point x="488" y="293" type="line" smooth="yes"/>
      <point x="488" y="403"/>
      <point x="439" y="455"/>
      <point x="360" y="455" type="curve" smooth="yes"/>
      <point x="299" y="455"/>
      <point x="244" y="425"/>
      <point x="194" y="360" type="curve"/>
      <point x="177" y="360" type="line"/>
      <point x="184" y="308" type="line"/>
      <point x="226" y="351"/>
      <point x="268" y="374"/>
      <point x="305" y="374" type="curve" smooth="yes"/>
      <point x="347" y="374"/>
      <point x="364" y="351"/>
      <point x="364" y="283" type="curve" smooth="yes"/>
      <point x="364" y="193" type="line" smooth="yes"/>
      <point x="364" y="134"/>
      <point x="363" y="41"/>
    </contour>
    <contour>
      <point x="29" y="0" type="line"/>
      <point x="262" y="0" type="line"/>
      <point x="262" y="39" type="line"/>
      <point x="173" y="57" type="line"/>
      <point x="119" y="57" type="line"/>
      <point x="29" y="39" type="line"/>
    </contour>
    <contour>
      <point x="84" y="0" type="curve"/>
      <point x="213" y="0" type="line"/>
      <point x="211" y="41"/>
      <point x="210" y="136"/>
      <point x="210" y="193" type="curve" smooth="yes"/>
      <point x="210" y="342" type="line"/>
      <point x="201" y="446" type="line"/>
      <point x="185" y="455" type="line"/>
      <point x="22" y="396" type="line"/>
      <point x="22" y="360" type="line"/>
      <point x="84" y="352" type="line"/>
      <point x="86" y="315"/>
      <point x="87" y="294"/>
      <point x="87" y="243" type="curve" smooth="yes"/>
      <point x="87" y="193" type="line" smooth="yes"/>
      <point x="87" y="136"/>
      <point x="86" y="41"/>
    </contour>
    <contour>
      <point x="309" y="0" type="line"/>
      <point x="541" y="0" type="line"/>
      <point x="541" y="39" type="line"/>
      <point x="451" y="57" type="line"/>
      <point x="397" y="57" type="line"/>
      <point x="309" y="39" type="line"/>
    </contour>
    <contour>
      <point x="123" y="540" type="curve"/>
      <point x="156" y="527" type="line"/>
      <point x="168" y="564"/>
      <point x="185" y="587"/>
      <point x="213" y="587" type="curve" smooth="yes"/>
      <point x="237" y="587"/>
      <point x="255" y="568"/>
      <point x="274" y="552" type="curve" smooth="yes"/>
      <point x="294" y="538"/>
      <point x="315" y="526"/>
      <point x="344" y="526" type="curve" smooth="yes"/>
      <point x="395" y="526"/>
      <point x="429" y="574"/>
      <point x="439" y="651" type="curve"/>
      <point x="406" y="665" type="line"/>
      <point x="394" y="627"/>
      <point x="376" y="604"/>
      <point x="349" y="604" type="curve" smooth="yes"/>
      <point x="325" y="604"/>
      <point x="309" y="621"/>
      <point x="287" y="638" type="curve" smooth="yes"/>
      <point x="270" y="652"/>
      <point x="249" y="665"/>
      <point x="220" y="665" type="curve" smooth="yes"/>
      <point x="168" y="665"/>
      <point x="133" y="618"/>
    </contour>
  </outline>
</glyph>
<glyph name="oacute" format="2">
  <advance width="515"/>
  <unicode hex="00F3"/>
  <anchor x="280" y="708" name="aboveLC"/>
  <anchor x="256" y="-20" name="belowLC"/>
  <anchor x="372" y="445" name="hornLC"/>
  <anchor x="329" y="0" name="ogonek"/>
  <outline>
    <contour>
      <point x="257" y="-12" type="curve" smooth="yes"/>
      <point x="388" y="-12"/>
      <point x="483" y="75"/>
      <point x="483" y="221" type="curve" smooth="yes"/>
      <point x="483" y="368"/>
      <point x="379" y="455"/>
      <point x="257" y="455" type="curve" smooth="yes"/>
      <point x="134" y="455"/>
      <point x="31" y="366"/>
      <point x="31" y="221" type="curve" smooth="yes"/>
      <point x="31" y="76"/>
      <point x="126" y="-12"/>
    </contour>
    <contour>
      <point x="257" y="33" type="curve" smooth="yes"/>
      <point x="195" y="33"/>
      <point x="164" y="92"/>
      <point x="164" y="219" type="curve" smooth="yes"/>
      <point x="164" y="348"/>
      <point x="195" y="409"/>
      <point x="257" y="409" type="curve" smooth="yes"/>
      <point x="317" y="409"/>
      <point x="350" y="348"/>
      <point x="350" y="219" type="curve" smooth="yes"/>
      <point x="350" y="92"/>
      <point x="317" y="33"/>
    </contour>
    <contour>
      <point x="217" y="534" type="curve"/>
      <point x="248" y="509" type="line"/>
      <point x="277" y="533"/>
      <point x="304" y="556"/>
      <point x="353" y="594" type="curve" smooth="yes"/>
      <point x="386" y="620"/>
      <point x="402" y="640"/>
      <point x="402" y="662" type="curve" smooth="yes"/>
      <point x="402" y="692"/>
      <point x="379" y="708"/>
      <point x="357" y="708" type="curve" smooth="yes"/>
      <point x="332" y="708"/>
      <point x="315" y="694"/>
      <point x="292" y="656" type="curve" smooth="yes"/>
      <point x="256" y="599"/>
      <point x="236" y="567"/>
    </contour>
  </outline>
</glyph>
<glyph name="odieresis" format="2">
  <advance width="515"/>
  <unicode hex="00F6"/>
  <anchor x="257" y="648" name="aboveLC"/>
  <anchor x="256" y="-20" name="belowLC"/>
  <anchor x="372" y="445" name="hornLC"/>
  <anchor x="329" y="0" name="ogonek"/>
  <outline>
    <contour>
      <point x="257" y="-12" type="curve" smooth="yes"/>
      <point x="388" y="-12"/>
      <point x="483" y="75"/>
      <point x="483" y="221" type="curve" smooth="yes"/>
      <point x="483" y="368"/>
      <point x="379" y="455"/>
      <point x="257" y="455" type="curve" smooth="yes"/>
      <point x="134" y="455"/>
      <point x="31" y="366"/>
      <point x="31" y="221" type="curve" smooth="yes"/>
      <point x="31" y="76"/>
      <point x="126" y="-12"/>
    </contour>
    <contour>
      <point x="257" y="33" type="curve" smooth="yes"/>
      <point x="195" y="33"/>
      <point x="164" y="92"/>
      <point x="164" y="219" type="curve" smooth="yes"/>
      <point x="164" y="348"/>
      <point x="195" y="409"/>
      <point x="257" y="409" type="curve" smooth="yes"/>
      <point x="317" y="409"/>
      <point x="350" y="348"/>
      <point x="350" y="219" type="curve" smooth="yes"/>
      <point x="350" y="92"/>
      <point x="317" y="33"/>
    </contour>
    <contour>
      <point x="151" y="535" type="curve" smooth="yes"/>
      <point x="186" y="535"/>
      <point x="218" y="559"/>
      <point x="218" y="597" type="curve" smooth="yes"/>
      <point x="218" y="634"/>
      <point x="186" y="659"/>
      <point x="151" y="659" type="curve" smooth="yes"/>
      <point x="117" y="659"/>
      <point x="86" y="634"/>
      <point x="86" y="597" type="curve" smooth="yes"/>
      <point x="86" y="559"/>
      <point x="117" y="535"/>
    </contour>
    <contour>
      <point x="363" y="535" type="curve" smooth="yes"/>
      <point x="398" y="535"/>
      <point x="428" y="559"/>
      <point x="428" y="597" type="curve" smooth="yes"/>
      <point x="428" y="634"/>
      <point x="398" y="659"/>
      <point x="363" y="659" type="curve" smooth="yes"/>
      <point x="329" y="659"/>
      <point x="297" y="634"/>
      <point x="297" y="597" type="curve" smooth="yes"/>
      <point x="297" y="559"/>
      <point x="329" y="535"/>
    </contour>
  </outline>
</glyph>
<glyph name="uacute" format="2">
  <advance width="551"/>
  <unicode hex="00FA"/>
  <anchor x="277" y="708" name="aboveLC"/>
  <anchor x="282" y="-20" name="belowLC"/>
  <anchor x="457" y="430" name="hornLC"/>
  <anchor x="460" y="0" name="ogonek"/>
  <outline>
    <contour>
      <point x="71" y="31"/>
      <point x="122" y="-12"/>
      <point x="199" y="-12" type="curve" smooth="yes"/>
      <point x="269" y="-12"/>
      <point x="330" y="27"/>
      <point x="376" y="103" type="curve"/>
      <point x="392" y="103" type="line"/>
      <point x="374" y="141" type="line"/>
      <point x="340" y="100"/>
      <point x="295" y="68"/>
      <point x="255" y="68" type="curve" smooth="yes"/>
      <point x="218" y="68"/>
      <point x="197" y="89"/>
      <point x="197" y="154" type="curve" smooth="yes"/>
      <point x="197" y="310" type="line"/>
      <point x="202" y="439" type="line"/>
      <point x="189" y="449" type="line"/>
      <point x="19" y="427" type="line"/>
      <point x="19" y="391" type="line"/>
      <point x="103" y="372" type="line"/>
      <point x="76" y="398" type="line"/>
      <point x="73" y="152" type="line" smooth="yes"/>
    </contour>
    <contour>
      <point x="360" y="-9" type="line"/>
      <point x="528" y="0" type="line"/>
      <point x="528" y="39" type="line"/>
      <point x="475" y="50" type="line"/>
      <point x="475" y="310" type="line"/>
      <point x="478" y="439" type="line"/>
      <point x="465" y="449" type="line"/>
      <point x="299" y="425" type="line"/>
      <point x="299" y="391" type="line"/>
      <point x="354" y="379" type="line"/>
      <point x="351" y="99" type="line"/>
    </contour>
    <contour>
      <point x="215" y="534" type="curve"/>
      <point x="245" y="509" type="line"/>
      <point x="275" y="533"/>
      <point x="302" y="556"/>
      <point x="350" y="594" type="curve" smooth="yes"/>
      <point x="383" y="620"/>
      <point x="400" y="640"/>
      <point x="400" y="662" type="curve" smooth="yes"/>
      <point x="400" y="692"/>
      <point x="378" y="708"/>
      <point x="355" y="708" type="curve" smooth="yes"/>
      <point x="329" y="708"/>
      <point x="312" y="694"/>
      <point x="289" y="656" type="curve" smooth="yes"/>
      <point x="253" y="599"/>
      <point x="234" y="567"/>
    </contour>
  </outline>
</glyph>
<glyph name="Scaron" format="2">
  <advance width="488"/>
  <unicode hex="0160"/>
  <anchor x="264" y="804" name="aboveUC"/>
  <anchor x="231" y="0" name="baseLC"/>
  <anchor x="234" y="-20" name="belowLC"/>
  <outline>
    <contour>
      <point x="226" y="-16" type="curve" smooth="yes"/>
      <point x="373" y="-16"/>
      <point x="459" y="57"/>
      <point x="459" y="165" type="curve" smooth="yes"/>
      <point x="459" y="256"/>
      <point x="410" y="308"/>
      <point x="292" y="359" type="curve" smooth="yes"/>
      <point x="251" y="377" type="line" smooth="yes"/>
      <point x="193" y="402"/>
      <point x="161" y="430"/>
      <point x="161" y="482" type="curve" smooth="yes"/>
      <point x="161" y="538"/>
      <point x="207" y="572"/>
      <point x="265" y="572" type="curve" smooth="yes"/>
      <point x="313" y="572"/>
      <point x="347" y="553"/>
      <point x="395" y="516" type="curve"/>
      <point x="395" y="562" type="line"/>
      <point x="326" y="589" type="line"/>
      <point x="349" y="450" type="line"/>
      <point x="425" y="450" type="line"/>
      <point x="432" y="576" type="line"/>
      <point x="389" y="606"/>
      <point x="330" y="624"/>
      <point x="265" y="624" type="curve" smooth="yes"/>
      <point x="133" y="624"/>
      <point x="44" y="558"/>
      <point x="44" y="448" type="curve" smooth="yes"/>
      <point x="44" y="349"/>
      <point x="107" y="295"/>
      <point x="210" y="250" type="curve" smooth="yes"/>
      <point x="249" y="233" type="line" smooth="yes"/>
      <point x="311" y="207"/>
      <point x="339" y="183"/>
      <point x="339" y="131" type="curve" smooth="yes"/>
      <point x="339" y="74"/>
      <point x="297" y="35"/>
      <point x="224" y="35" type="curve" smooth="yes"/>
      <point x="164" y="35"/>
      <point x="128" y="53"/>
      <point x="70" y="87" type="curve"/>
      <point x="70" y="43" type="line"/>
      <point x="138" y="19" type="line"/>
      <point x="114" y="166" type="line"/>
      <point x="38" y="166" type="line"/>
      <point x="33" y="32" type="line"/>
      <point x="82" y="0"/>
      <point x="157" y="-16"/>
    </contour>
    <contour>
      <point x="144" y="813" type="line"/>
      <point x="117" y="787" type="line"/>
      <point x="227" y="660" type="line"/>
      <point x="302" y="660" type="line"/>
      <point x="413" y="787" type="line"/>
      <point x="384" y="813" type="line"/>
      <point x="225" y="705" type="line"/>
      <point x="304" y="705" type="line"/>
    </contour>
  </outline>
</glyph>
<glyph name="Ydieresis" format="2">
  <advance width="576"/>
  <unicode hex="0178"/>
  <anchor x="331" y="793" name="aboveUC"/>
  <anchor x="287" y="-20" name="belowLC"/>
  <outline>
    <contour>
      <point x="138" y="0" type="line"/>
      <point x="441" y="0" type="line"/>
      <point x="441" y="45" type="line"/>
      <point x="306" y="58" type="line"/>
      <point x="272" y="58" type="line"/>
      <point x="138" y="45" type="line"/>
    </contour>
    <contour>
      <point x="221" y="0" type="curve"/>
      <point x="358" y="0" type="line"/>
      <point x="356" y="83"/>
      <point x="356" y="153"/>
      <point x="356" y="281" type="curve"/>
      <point x="224" y="281" type="line"/>
      <point x="224" y="152"/>
      <point x="224" y="81"/>
    </contour>
    <contour>
      <point x="241" y="200" type="line"/>
      <point x="329" y="200" type="line"/>
      <point x="529" y="608" type="line"/>
      <point x="471" y="608" type="line"/>
      <point x="314" y="272" type="line"/>
      <point x="345" y="275" type="line"/>
      <point x="193" y="608" type="line"/>
      <point x="42" y="608" type="line"/>
    </contour>
    <contour>
      <point x="9" y="563" type="line"/>
      <point x="142" y="549" type="line"/>
      <point x="175" y="549" type="line"/>
      <point x="293" y="563" type="line"/>
      <point x="293" y="608" type="line"/>
      <point x="9" y="608" type="line"/>
    </contour>
    <contour>
      <point x="375" y="563" type="line"/>
      <point x="467" y="549" type="line"/>
      <point x="486" y="549" type="line"/>
      <point x="572" y="563" type="line"/>
      <point x="572" y="608" type="line"/>
      <point x="375" y="608" type="line"/>
    </contour>
    <contour>
      <point x="220" y="665" type="curve" smooth="yes"/>
      <point x="254" y="665"/>
      <point x="283" y="688"/>
      <point x="283" y="724" type="curve" smooth="yes"/>
      <point x="283" y="760"/>
      <point x="254" y="783"/>
      <point x="220" y="783" type="curve" smooth="yes"/>
      <point x="187" y="783"/>
      <point x="158" y="760"/>
      <point x="158" y="724" type="curve" smooth="yes"/>
      <point x="158" y="688"/>
      <point x="187" y="665"/>
    </contour>
    <contour>
      <point x="441" y="665" type="curve" smooth="yes"/>
      <point x="475" y="665"/>
      <point x="504" y="688"/>
      <point x="504" y="724" type="curve" smooth="yes"/>
      <point x="504" y="760"/>
      <point x="475" y="783"/>
      <point x="441" y="783" type="curve" smooth="yes"/>
      <point x="408" y="783"/>
      <point x="379" y="760"/>
      <point x="379" y="724" type="curve" smooth="yes"/>
      <point x="379" y="688"/>
      <point x="408" y="665"/>
    </contour>
  </outline>
</glyph>
<glyph name="circumflex" format="2">
  <advance width="318"/>
  <unicode hex="02C6"/>
  <anchor x="159" y="471" name="_aboveLC"/>
  <anchor x="159" y="690" name="aboveLC"/>
  <outline>
    <contour>
      <point x="279" y="501" type="line"/>
      <point x="309" y="529" type="line"/>
      <point x="184" y="690" type="line"/>
      <point x="134" y="690" type="line"/>
      <point x="9" y="529" type="line"/>
      <point x="37" y="501" type="line"/>
      <point x="201" y="633" type="line"/>
      <point x="116" y="633" type="line"/>
    </contour>
  </outline>
</glyph>
<glyph name="caron" format="2">
  <advance width="368"/>
  <unicode hex="02C7"/>
  <anchor x="184" y="471" name="_aboveLC"/>
  <anchor x="184" y="688" name="aboveLC"/>
  <outline>
    <contour>
      <point x="73" y="697" type="line"/>
      <point x="42" y="671" type="line"/>
      <point x="146" y="521" type="line"/>
      <point x="221" y="521" type="line"/>
      <point x="325" y="671" type="line"/>
      <point x="294" y="697" type="line"/>
      <point x="144" y="567" type="line"/>
      <point x="223" y="567" type="line"/>
    </contour>
  </outline>
</glyph>
<glyph name="ogonek" format="2">
  <advance width="368"/>
  <unicode hex="02DB"/>
  <anchor x="185" y="0" name="_ogonek"/>
  <outline>
    <contour>
      <point x="77" y="-118" type="curve" smooth="yes"/>
      <point x="77" y="-169"/>
      <point x="114" y="-206"/>
      <point x="173" y="-206" type="curve" smooth="yes"/>
      <point x="216" y="-206"/>
      <point x="260" y="-191"/>
      <point x="287" y="-161" type="curve"/>
      <point x="274" y="-126" type="line"/>
      <point x="258" y="-134"/>
      <point x="241" y="-137"/>
      <point x="224" y="-137" type="curve" smooth="yes"/>
      <point x="186" y="-137"/>
      <point x="160" y="-114"/>
      <point x="160" y="-76" type="curve" smooth="yes"/>
      <point x="160" y="-44"/>
      <point x="177" y="-12"/>
      <point x="214" y="9" type="curve"/>
      <point x="180" y="9" type="line"/>
      <point x="119" y="-16"/>
      <point x="77" y="-61"/>
    </contour>
  </outline>
</glyph>
<glyph name="pi" format="2">
  <advance width="559"/>
  <unicode hex="03C0"/>
  <outline>
    <contour>
      <point x="108" y="-12" type="curve" smooth="yes"/>
      <point x="168" y="-12"/>
      <point x="203" y="27"/>
      <point x="207" y="122" type="curve" smooth="yes"/>
      <point x="210" y="209"/>
      <point x="212" y="309"/>
      <point x="213" y="393" type="curve"/>
      <point x="163" y="393" type="line"/>
      <point x="159" y="296"/>
      <point x="151" y="182"/>
      <point x="138" y="83" type="curve"/>
      <point x="184" y="121" type="line"/>
      <point x="146" y="117"/>
      <point x="88" y="109"/>
      <point x="55" y="103" type="curve"/>
      <point x="41" y="88"/>
      <point x="34" y="71"/>
      <point x="34" y="48" type="curve" smooth="yes"/>
      <point x="34" y="13"/>
      <point x="62" y="-12"/>
    </contour>
    <contour>
      <point x="20" y="333" type="line"/>
      <point x="173" y="354" type="line"/>
      <point x="379" y="354" type="line"/>
      <point x="534" y="347" type="line"/>
      <point x="529" y="445" type="line"/>
      <point x="213" y="445" type="line" smooth="yes"/>
      <point x="98" y="445"/>
      <point x="57" y="424"/>
      <point x="11" y="383" type="curve"/>
    </contour>
    <contour>
      <point x="428" y="-12" type="curve" smooth="yes"/>
      <point x="483" y="-12"/>
      <point x="512" y="8"/>
      <point x="531" y="43" type="curve"/>
      <point x="520" y="73" type="line"/>
      <point x="510" y="69"/>
      <point x="497" y="66"/>
      <point x="483" y="66" type="curve" smooth="yes"/>
      <point x="448" y="66"/>
      <point x="429" y="81"/>
      <point x="427" y="139" type="curve" smooth="yes"/>
      <point x="416" y="393" type="line"/>
      <point x="335" y="393" type="line"/>
      <point x="327" y="268"/>
      <point x="321" y="174"/>
      <point x="321" y="104" type="curve" smooth="yes"/>
      <point x="321" y="24"/>
      <point x="359" y="-12"/>
    </contour>
  </outline>
</glyph>
<glyph name="quoteleft" format="2">
  <advance width="270"/>
  <unicode hex="2018"/>
  <outline>
    <contour>
      <point x="170" y="609" type="line"/>
      <point x="96" y="571"/>
      <point x="48" y="507"/>
      <point x="48" y="441" type="curve" smooth="yes"/>
      <point x="48" y="380"/>
      <point x="74" y="339"/>
      <point x="123" y="339" type="curve" smooth="yes"/>
      <point x="168" y="339"/>
      <point x="192" y="374"/>
      <point x="192" y="411" type="curve" smooth="yes"/>
      <point x="192" y="451"/>
      <point x="170" y="476"/>
      <point x="137" y="476" type="curve" smooth="yes"/>
      <point x="114" y="476"/>
      <point x="87" y="458"/>
      <point x="87" y="435" type="curve"/>
      <point x="92" y="435"/>
      <point x="114" y="435"/>
      <point x="121" y="435" type="curve"/>
      <point x="117" y="444"/>
      <point x="117" y="457"/>
      <point x="117" y="483" type="curve" smooth="yes"/>
      <point x="117" y="520"/>
      <point x="145" y="548"/>
      <point x="179" y="565" type="curve"/>
    </contour>
  </outline>
</glyph>
<glyph name="quoteright" format="2">
  <advance width="270"/>
  <unicode hex="2019"/>
  <outline>
    <contour>
      <point x="100" y="339" type="line"/>
      <point x="174" y="377"/>
      <point x="222" y="441"/>
      <point x="222" y="507" type="curve" smooth="yes"/>
      <point x="222" y="568"/>
      <point x="196" y="609"/>
      <point x="147" y="609" type="curve" smooth="yes"/>
      <point x="102" y="609"/>
      <point x="78" y="574"/>
      <point x="78" y="537" type="curve" smooth="yes"/>
      <point x="78" y="497"/>
      <point x="100" y="472"/>
      <point x="133" y="472" type="curve" smooth="yes"/>
      <point x="156" y="472"/>
      <point x="183" y="490"/>
      <point x="183" y="513" type="curve"/>
      <point x="178" y="513"/>
      <point x="156" y="513"/>
      <point x="149" y="513" type="curve"/>
      <point x="153" y="504"/>
      <point x="153" y="491"/>
      <point x="153" y="465" type="curve" smooth="yes"/>
      <point x="153" y="428"/>
      <point x="125" y="400"/>
      <point x="91" y="383" type="curve"/>
    </contour>
  </outline>
</glyph>
<glyph name="quotesinglbase" format="2">
  <advance width="270"/>
  <unicode hex="201A"/>
  <outline>
    <contour>
      <point x="100" y="-141" type="line"/>
      <point x="174" y="-103"/>
      <point x="222" y="-39"/>
      <point x="222" y="27" type="curve" smooth="yes"/>
      <point x="222" y="88"/>
      <point x="196" y="129"/>
      <point x="147" y="129" type="curve" smooth="yes"/>
      <point x="102" y="129"/>
      <point x="78" y="94"/>
      <point x="78" y="57" type="curve" smooth="yes"/>
      <point x="78" y="17"/>
      <point x="100" y="-8"/>
      <point x="133" y="-8" type="curve" smooth="yes"/>
      <point x="156" y="-8"/>
      <point x="183" y="10"/>
      <point x="183" y="33" type="curve"/>
      <point x="178" y="33"/>
      <point x="156" y="33"/>
      <point x="149" y="33" type="curve"/>
      <point x="153" y="24"/>
      <point x="153" y="11"/>
      <point x="153" y="-15" type="curve" smooth="yes"/>
      <point x="153" y="-52"/>
      <point x="125" y="-80"/>
      <point x="91" y="-97" type="curve"/>
    </contour>
  </outline>
</glyph>
<glyph name="quotedblbase" format="2">
  <advance width="463"/>
  <unicode hex="201E"/>
  <outline>
    <contour>
      <point x="100" y="-141" type="line"/>
      <point x="174" y="-103"/>
      <point x="222" y="-39"/>
      <point x="222" y="27" type="curve" smooth="yes"/>
      <point x="222" y="88"/>
      <point x="196" y="129"/>
      <point x="147" y="129" type="curve" smooth="yes"/>
      <point x="102" y="129"/>
      <point x="78" y="94"/>
      <point x="78" y="57" type="curve" smooth="yes"/>
      <point x="78" y="17"/>
      <point x="100" y="-8"/>
      <point x="133" y="-8" type="curve" smooth="yes"/>
      <point x="156" y="-8"/>
      <point x="183" y="10"/>
      <point x="183" y="33" type="curve"/>
      <point x="178" y="33"/>
      <point x="156" y="33"/>
      <point x="149" y="33" type="curve"/>
      <point x="153" y="24"/>
      <point x="153" y="11"/>
      <point x="153" y="-15" type="curve" smooth="yes"/>
      <point x="153" y="-52"/>
      <point x="125" y="-80"/>
      <point x="91" y="-97" type="curve"/>
    </contour>
    <contour>
      <point x="293" y="-141" type="line"/>
      <point x="367" y="-103"/>
      <point x="415" y="-39"/>
      <point x="415" y="27" type="curve" smooth="yes"/>
      <point x="415" y="88"/>
      <point x="389" y="129"/>
      <point x="340" y="129" type="curve" smooth="yes"/>
      <point x="295" y="129"/>
      <point x="271" y="94"/>
      <point x="271" y="57" type="curve" smooth="yes"/>
      <point x="271" y="17"/>
      <point x="293" y="-8"/>
      <point x="326" y="-8" type="curve" smooth="yes"/>
      <point x="349" y="-8"/>
      <point x="376" y="10"/>
      <point x="376" y="33" type="curve"/>
      <point x="371" y="33"/>
      <point x="349" y="33"/>
      <point x="342" y="33" type="curve"/>
      <point x="346" y="24"/>
      <point x="346" y="11"/>
      <point x="346" y="-15" type="curve" smooth="yes"/>
      <point x="346" y="-52"/>
      <point x="318" y="-80"/>
      <point x="284" y="-97" type="curve"/>
    </contour>
  </outline>
</glyph>
<glyph name="dagger" format="2">
  <advance width="483"/>
  <unicode hex="2020"/>
  <outline>
    <contour>
      <point x="33" y="446" type="curve" smooth="yes"/>
      <point x="33" y="412"/>
      <point x="52" y="388"/>
      <point x="93" y="388" type="curve" smooth="yes"/>
      <point x="120" y="388"/>
      <point x="152" y="400"/>
      <point x="179" y="411" type="curve" smooth="yes"/>
      <point x="241" y="436" type="line"/>
      <point x="241" y="455" type="line"/>
      <point x="179" y="481" type="line" smooth="yes"/>
      <point x="151" y="492"/>
      <point x="120" y="503"/>
      <point x="93" y="503" type="curve" smooth="yes"/>
      <point x="52" y="503"/>
      <point x="33" y="479"/>
    </contour>
    <contour>
      <point x="184" y="260" type="curve" smooth="yes"/>
      <point x="184" y="203"/>
      <point x="199" y="105"/>
      <point x="225" y="-85" type="curve"/>
      <point x="257" y="-85" type="line"/>
      <point x="283" y="105"/>
      <point x="297" y="202"/>
      <point x="297" y="260" type="curve" smooth="yes"/>
      <point x="297" y="315"/>
      <point x="288" y="356"/>
      <point x="251" y="446" type="curve"/>
      <point x="231" y="446" type="line"/>
      <point x="192" y="356"/>
      <point x="184" y="315"/>
    </contour>
    <contour>
      <point x="241" y="660" type="curve" smooth="yes"/>
      <point x="207" y="660"/>
      <point x="184" y="642"/>
      <point x="184" y="602" type="curve" smooth="yes"/>
      <point x="184" y="574"/>
      <point x="196" y="532"/>
      <point x="207" y="506" type="curve" smooth="yes"/>
      <point x="230" y="446" type="line"/>
      <point x="251" y="446" type="line"/>
      <point x="276" y="506" type="line" smooth="yes"/>
      <point x="287" y="533"/>
      <point x="299" y="574"/>
      <point x="299" y="602" type="curve" smooth="yes"/>
      <point x="299" y="642"/>
      <point x="275" y="660"/>
    </contour>
    <contour>
      <point x="448" y="446" type="curve" smooth="yes"/>
      <point x="448" y="479"/>
      <point x="429" y="503"/>
      <point x="389" y="503" type="curve" smooth="yes"/>
      <point x="362" y="503"/>
      <point x="331" y="491"/>
      <point x="302" y="480" type="curve" smooth="yes"/>
      <point x="241" y="455" type="line"/>
      <point x="241" y="436" type="line"/>
      <point x="302" y="410" type="line" smooth="yes"/>
      <point x="331" y="398"/>
      <point x="362" y="388"/>
      <point x="389" y="388" type="curve" smooth="yes"/>
      <point x="429" y="388"/>
      <point x="448" y="412"/>
    </contour>
  </outline>
</glyph>
<glyph name="partialdiff" format="2">
  <advance width="506"/>
  <unicode hex="2202"/>
  <outline>
    <contour>
      <point x="207" y="-13" type="curve" smooth="yes"/>
      <point x="360" y="-13"/>
      <point x="478" y="127"/>
      <point x="478" y="353" type="curve" smooth="yes"/>
      <point x="478" y="517"/>
      <point x="379" y="595"/>
      <point x="266" y="595" type="curve" smooth="yes"/>
      <point x="212" y="595"/>
      <point x="161" y="581"/>
      <point x="120" y="559" type="curve"/>
      <point x="132" y="518" type="line"/>
      <point x="172" y="534"/>
      <point x="195" y="540"/>
      <point x="226" y="540" type="curve" smooth="yes"/>
      <point x="301" y="540"/>
      <point x="358" y="492"/>
      <point x="358" y="353" type="curve" smooth="yes"/>
      <point x="358" y="170"/>
      <point x="294" y="34"/>
      <point x="221" y="34" type="curve" smooth="yes"/>
      <point x="184" y="34"/>
      <point x="161" y="69"/>
      <point x="161" y="132" type="curve" smooth="yes"/>
      <point x="161" y="257"/>
      <point x="229" y="328"/>
      <point x="294" y="328" type="curve" smooth="yes"/>
      <point x="333" y="328"/>
      <point x="356" y="319"/>
      <point x="384" y="299" type="curve"/>
      <point x="391" y="328" type="line"/>
      <point x="361" y="361"/>
      <point x="321" y="379"/>
      <point x="268" y="379" type="curve" smooth="yes"/>
      <point x="145" y="379"/>
      <point x="41" y="293"/>
      <point x="41" y="160" type="curve" smooth="yes"/>
      <point x="41" y="46"/>
      <point x="116" y="-13"/>
    </contour>
  </outline>
</glyph>
<glyph name="infinity" format="2">
  <advance width="724"/>
  <unicode hex="221E"/>
  <outline>
    <contour>
      <point x="320" y="253" type="curve" smooth="yes"/>
      <point x="371" y="183"/>
      <point x="432" y="122"/>
      <point x="527" y="122" type="curve" smooth="yes"/>
      <point x="628" y="122"/>
      <point x="692" y="201"/>
      <point x="692" y="305" type="curve" smooth="yes"/>
      <point x="692" y="407"/>
      <point x="632" y="473"/>
      <point x="551" y="473" type="curve" smooth="yes"/>
      <point x="481" y="473"/>
      <point x="420" y="432"/>
      <point x="365" y="322" type="curve"/>
      <point x="381" y="292" type="line"/>
      <point x="440" y="367"/>
      <point x="478" y="395"/>
      <point x="538" y="395" type="curve" smooth="yes"/>
      <point x="597" y="395"/>
      <point x="639" y="360"/>
      <point x="639" y="305" type="curve" smooth="yes"/>
      <point x="639" y="254"/>
      <point x="607" y="222"/>
      <point x="556" y="222" type="curve" smooth="yes"/>
      <point x="502" y="222"/>
      <point x="456" y="272"/>
      <point x="404" y="343" type="curve" smooth="yes"/>
      <point x="353" y="414"/>
      <point x="292" y="473"/>
      <point x="198" y="473" type="curve" smooth="yes"/>
      <point x="96" y="473"/>
      <point x="32" y="395"/>
      <point x="32" y="290" type="curve" smooth="yes"/>
      <point x="32" y="188"/>
      <point x="92" y="122"/>
      <point x="173" y="122" type="curve" smooth="yes"/>
      <point x="244" y="122"/>
      <point x="304" y="164"/>
      <point x="359" y="274" type="curve"/>
      <point x="343" y="304" type="line"/>
      <point x="284" y="229"/>
      <point x="246" y="200"/>
      <point x="186" y="200" type="curve" smooth="yes"/>
      <point x="127" y="200"/>
      <point x="85" y="235"/>
      <point x="85" y="291" type="curve" smooth="yes"/>
      <point x="85" y="342"/>
      <point x="117" y="374"/>
      <point x="168" y="374" type="curve" smooth="yes"/>
      <point x="221" y="374"/>
      <point x="268" y="324"/>
    </contour>
  </outline>
</glyph>
<glyph name="greaterequal" format="2">
  <advance width="496"/>
  <unicode hex="2265"/>
  <outline>
    <contour>
      <point x="26" y="0" type="line"/>
      <point x="469" y="0" type="line"/>
      <point x="469" y="71" type="line"/>
      <point x="26" y="71" type="line"/>
    </contour>
    <contour>
      <point x="457" y="285" type="line"/>
      <point x="457" y="341" type="line"/>
      <point x="80" y="523" type="line"/>
      <point x="49" y="457" type="line"/>
      <point x="404" y="291" type="line"/>
      <point x="404" y="333" type="line"/>
      <point x="49" y="168" type="line"/>
      <point x="80" y="102" type="line"/>
    </contour>
  </outline>
</glyph>
<glyph name="uniA4D2" format="2">
  <advance width="531"/>
  <unicode hex="A4D2"/>
  <outline>
    <contour>
      <point x="259" y="0" type="curve" smooth="yes"/>
      <point x="479" y="0" type="line"/>
      <point x="479" y="530" type="line"/>
      <point x="335" y="530" type="line"/>
      <point x="335" y="306" type="line"/>
      <point x="407" y="336" type="line"/>
      <point x="259" y="336" type="line" smooth="yes"/>
      <point x="155" y="336"/>
      <point x="44" y="286"/>
      <point x="44" y="165" type="curve" smooth="yes"/>
      <point x="44" y="50"/>
      <point x="155" y="0"/>
    </contour>
    <contour>
      <point x="335" y="40" type="line"/>
      <point x="407" y="92" type="line"/>
      <point x="283" y="92" type="line" smooth="yes"/>
      <point x="228" y="92"/>
      <point x="188" y="110"/>
      <point x="188" y="170" type="curve" smooth="yes"/>
      <point x="188" y="226"/>
      <point x="228" y="244"/>
      <point x="283" y="244" type="curve" smooth="yes"/>
      <point x="407" y="244" type="line"/>
      <point x="335" y="286" type="line"/>
    </contour>
  </outline>
</glyph>
<glyph name="uniA4D3" format="2">
  <advance width="551"/>
  <unicode hex="A4D3"/>
  <outline>
    <contour>
      <point x="52" y="0" type="line"/>
      <point x="238" y="0" type="line" smooth="yes"/>
      <point x="403" y="0"/>
      <point x="507" y="120"/>
      <point x="507" y="275" type="curve" smooth="yes"/>
      <point x="507" y="430"/>
      <point x="408" y="530"/>
      <point x="238" y="530" type="curve" smooth="yes"/>
      <point x="52" y="530" type="line"/>
    </contour>
    <contour>
      <point x="196" y="40" type="line"/>
      <point x="196" y="490" type="line"/>
      <point x="124" y="438" type="line"/>
      <point x="228" y="438" type="line" smooth="yes"/>
      <point x="333" y="438"/>
      <point x="363" y="385"/>
      <point x="363" y="270" type="curve" smooth="yes"/>
      <point x="363" y="155"/>
      <point x="333" y="92"/>
      <point x="228" y="92" type="curve" smooth="yes"/>
      <point x="124" y="92" type="line"/>
    </contour>
  </outline>
</glyph>
<glyph name="uniA4D5" format="2">
  <advance width="588"/>
  <unicode hex="A4D5"/>
  <outline>
    <contour>
      <point x="42" y="0" type="line"/>
      <point x="546" y="0" type="line"/>
      <point x="546" y="92" type="line"/>
      <point x="366" y="92" type="line"/>
      <point x="366" y="530" type="line"/>
      <point x="222" y="530" type="line"/>
      <point x="222" y="92" type="line"/>
      <point x="42" y="92" type="line"/>
    </contour>
  </outline>
</glyph>
<glyph name="uniA4D6" format="2">
  <advance width="594"/>
  <unicode hex="A4D6"/>
  <outline>
    <contour>
      <point x="308" y="-8" type="curve" smooth="yes"/>
      <point x="418" y="-8"/>
      <point x="488" y="26"/>
      <point x="550" y="76" type="curve"/>
      <point x="550" y="283" type="line"/>
      <point x="293" y="283" type="line"/>
      <point x="293" y="197" type="line"/>
      <point x="406" y="197" type="line"/>
      <point x="406" y="72" type="line"/>
      <point x="430" y="153" type="line"/>
      <point x="401" y="112"/>
      <point x="363" y="78"/>
      <point x="308" y="78" type="curve" smooth="yes"/>
      <point x="218" y="78"/>
      <point x="188" y="168"/>
      <point x="188" y="265" type="curve" smooth="yes"/>
      <point x="188" y="366"/>
      <point x="218" y="452"/>
      <point x="308" y="452" type="curve" smooth="yes"/>
      <point x="353" y="452"/>
      <point x="383" y="419"/>
      <point x="401" y="369" type="curve"/>
      <point x="534" y="415" type="line"/>
      <point x="494" y="498"/>
      <point x="418" y="538"/>
      <point x="308" y="538" type="curve" smooth="yes"/>
      <point x="125" y="538"/>
      <point x="44" y="406"/>
      <point x="44" y="260" type="curve" smooth="yes"/>
      <point x="44" y="113"/>
      <point x="125" y="-8"/>
    </contour>
  </outline>
</glyph>
<glyph name="uniA4DD" format="2">
  <advance width="494"/>
  <unicode hex="A4DD"/>
  <outline>
    <contour>
      <point x="52" y="0" type="line"/>
      <point x="196" y="0" type="line"/>
      <point x="196" y="438" type="line"/>
      <point x="452" y="438" type="line"/>
      <point x="452" y="530" type="line"/>
      <point x="52" y="530" type="line"/>
    </contour>
    <contour>
      <point x="124" y="224" type="line"/>
      <point x="420" y="224" type="line"/>
      <point x="420" y="316" type="line"/>
      <point x="124" y="316" type="line"/>
    </contour>
  </outline>
</glyph>
<glyph name="uniA4E3" format="2">
  <advance width="546"/>
  <unicode hex="A4E3"/>
  <outline>
    <contour>
      <point x="52" y="0" type="line"/>
      <point x="196" y="0" type="line"/>
      <point x="196" y="250" type="line"/>
      <point x="124" y="220" type="line"/>
      <point x="294" y="220" type="line" smooth="yes"/>
      <point x="407" y="220"/>
      <point x="490" y="289"/>
      <point x="490" y="382" type="curve" smooth="yes"/>
      <point x="490" y="470"/>
      <point x="407" y="530"/>
      <point x="294" y="530" type="curve" smooth="yes"/>
      <point x="52" y="530" type="line"/>
    </contour>
    <contour>
      <point x="348" y="0" type="curve"/>
      <point x="502" y="0" type="line"/>
      <point x="460" y="80"/>
      <point x="396" y="240"/>
      <point x="339" y="260" type="curve"/>
      <point x="174" y="260" type="line"/>
      <point x="255" y="220"/>
      <point x="307" y="89"/>
    </contour>
    <contour>
      <point x="196" y="270" type="line"/>
      <point x="196" y="480" type="line"/>
      <point x="124" y="438" type="line"/>
      <point x="254" y="438" type="line" smooth="yes"/>
      <point x="309" y="438"/>
      <point x="346" y="426"/>
      <point x="346" y="377" type="curve" smooth="yes"/>
      <point x="346" y="324"/>
      <point x="309" y="312"/>
      <point x="254" y="312" type="curve" smooth="yes"/>
      <point x="124" y="312" type="line"/>
    </contour>
  </outline>
</glyph>
<glyph name="uniA4E4" format="2">
  <advance width="546"/>
  <unicode hex="A4E4"/>
  <outline>
    <contour>
      <point x="252" y="0" type="curve" smooth="yes"/>
      <point x="494" y="0" type="line"/>
      <point x="494" y="530" type="line"/>
      <point x="350" y="530" type="line"/>
      <point x="350" y="280" type="line"/>
      <point x="422" y="310" type="line"/>
      <point x="252" y="310" type="line" smooth="yes"/>
      <point x="139" y="310"/>
      <point x="56" y="241"/>
      <point x="56" y="148" type="curve" smooth="yes"/>
      <point x="56" y="60"/>
      <point x="139" y="0"/>
    </contour>
    <contour>
      <point x="350" y="50" type="line"/>
      <point x="422" y="92" type="line"/>
      <point x="292" y="92" type="line" smooth="yes"/>
      <point x="237" y="92"/>
      <point x="200" y="104"/>
      <point x="200" y="153" type="curve" smooth="yes"/>
      <point x="200" y="206"/>
      <point x="237" y="218"/>
      <point x="292" y="218" type="curve" smooth="yes"/>
      <point x="422" y="218" type="line"/>
      <point x="350" y="260" type="line"/>
    </contour>
    <contour>
      <point x="207" y="270" type="curve"/>
      <point x="372" y="270" type="line"/>
      <point x="291" y="310"/>
      <point x="239" y="441"/>
      <point x="198" y="530" type="curve"/>
      <point x="44" y="530" type="line"/>
      <point x="86" y="450"/>
      <point x="150" y="290"/>
    </contour>
  </outline>
</glyph>
<glyph name="uniA4E9" format="2">
  <advance width="502"/>
  <unicode hex="A4E9"/>
  <outline>
    <contour>
      <point x="52" y="0" type="line"/>
      <point x="196" y="0" type="line"/>
      <point x="196" y="328" type="line" smooth="yes"/>
      <point x="196" y="402"/>
      <point x="211" y="446"/>
      <point x="256" y="446" type="curve" smooth="yes"/>
      <point x="301" y="446"/>
      <point x="316" y="406"/>
      <point x="316" y="348" type="curve" smooth="yes"/>
      <point x="316" y="345" type="line"/>
      <point x="460" y="345" type="line"/>
      <point x="460" y="370" type="line" smooth="yes"/>
      <point x="460" y="464"/>
      <point x="386" y="538"/>
      <point x="256" y="538" type="curve" smooth="yes"/>
      <point x="126" y="538"/>
      <point x="52" y="460"/>
      <point x="52" y="340" type="curve" smooth="yes"/>
    </contour>
  </outline>
</glyph>
<glyph name="uniA4EC" format="2">
  <advance width="616"/>
  <unicode hex="A4EC"/>
  <outline>
    <contour>
      <point x="236" y="0" type="line"/>
      <point x="380" y="0" type="line"/>
      <point x="380" y="223" type="line"/>
      <point x="580" y="530" type="line"/>
      <point x="431" y="530" type="line"/>
      <point x="278" y="270" type="line"/>
      <point x="338" y="270" type="line"/>
      <point x="185" y="530" type="line"/>
      <point x="36" y="530" type="line"/>
      <point x="236" y="223" type="line"/>
    </contour>
  </outline>
</glyph>
<glyph name="uniA4ED" format="2">
  <advance width="536"/>
  <unicode hex="A4ED"/>
  <outline>
    <contour>
      <point x="242" y="0" type="curve" smooth="yes"/>
      <point x="484" y="0" type="line"/>
      <point x="484" y="530" type="line"/>
      <point x="254" y="530" type="line" smooth="yes"/>
      <point x="136" y="530"/>
      <point x="44" y="479"/>
      <point x="44" y="378" type="curve" smooth="yes"/>
      <point x="44" y="316"/>
      <point x="83" y="271"/>
      <point x="175" y="252" type="curve"/>
      <point x="175" y="288" type="line"/>
      <point x="87" y="264"/>
      <point x="54" y="205"/>
      <point x="54" y="148" type="curve" smooth="yes"/>
      <point x="54" y="57"/>
      <point x="119" y="0"/>
    </contour>
    <contour>
      <point x="340" y="40" type="line"/>
      <point x="412" y="92" type="line"/>
      <point x="296" y="92" type="line" smooth="yes"/>
      <point x="231" y="92"/>
      <point x="198" y="104"/>
      <point x="198" y="156" type="curve" smooth="yes"/>
      <point x="198" y="207"/>
      <point x="231" y="227"/>
      <point x="296" y="227" type="curve" smooth="yes"/>
      <point x="412" y="227" type="line"/>
      <point x="340" y="260" type="line"/>
    </contour>
    <contour>
      <point x="340" y="280" type="line"/>
      <point x="412" y="313" type="line"/>
      <point x="288" y="313" type="line" smooth="yes"/>
      <point x="223" y="313"/>
      <point x="188" y="328"/>
      <point x="188" y="378" type="curve" smooth="yes"/>
      <point x="188" y="427"/>
      <point x="223" y="438"/>
      <point x="288" y="438" type="curve" smooth="yes"/>
      <point x="412" y="438" type="line"/>
      <point x="340" y="490" type="line"/>
    </contour>
  </outline>
</glyph>
<glyph name="uniA4F6" format="2">
  <advance width="494"/>
  <unicode hex="A4F6"/>
  <outline>
    <contour>
      <point x="298" y="0" type="line"/>
      <point x="442" y="0" type="line"/>
      <point x="442" y="530" type="line"/>
      <point x="42" y="530" type="line"/>
      <point x="42" y="438" type="line"/>
      <point x="298" y="438" type="line"/>
    </contour>
  </outline>
</glyph>
<glyph name="uniA4F9" format="2">
  <advance width="267"/>
  <unicode hex="A4F9"/>
  <outline>
    <contour>
      <point x="61" y="-188" type="line"/>
      <point x="164" y="-159"/>
      <point x="231" y="-71"/>
      <point x="231" y="33" type="curve" smooth="yes"/>
      <point x="231" y="116"/>
      <point x="196" y="160"/>
      <point x="136" y="160" type="curve" smooth="yes"/>
      <point x="87" y="160"/>
      <point x="54" y="120"/>
      <point x="54" y="71" type="curve" smooth="yes"/>
      <point x="54" y="21"/>
      <point x="83" y="-8"/>
      <point x="120" y="-8" type="curve" smooth="yes"/>
      <point x="156" y="-8"/>
      <point x="191" y="19"/>
      <point x="191" y="55" type="curve"/>
      <point x="183" y="55"/>
      <point x="149" y="55"/>
      <point x="138" y="55" type="curve"/>
      <point x="147" y="41"/>
      <point x="155" y="21"/>
      <point x="155" y="-17" type="curve" smooth="yes"/>
      <point x="155" y="-84"/>
      <point x="91" y="-122"/>
      <point x="47" y="-134" type="curve"/>
    </contour>
  </outline>
</glyph>
<glyph name="f_l" format="2">
  <advance width="578"/>
  <unicode hex="FB02"/>
  <outline>
    <contour>
      <point x="86" y="0" type="curve"/>
      <point x="215" y="0" type="line"/>
      <point x="213" y="64"/>
      <point x="212" y="128"/>
      <point x="212" y="193" type="curve" smooth="yes"/>
      <point x="212" y="398" type="line"/>
      <point x="205" y="511"/>
      <point x="213" y="578"/>
      <point x="253" y="617" type="curve" smooth="yes"/>
      <point x="272" y="637"/>
      <point x="290" y="646"/>
      <point x="325" y="655" type="curve"/>
      <point x="261" y="657" type="line"/>
      <point x="283" y="626" type="line" smooth="yes"/>
      <point x="311" y="587"/>
      <point x="345" y="569"/>
      <point x="380" y="569" type="curve" smooth="yes"/>
      <point x="415" y="569"/>
      <point x="433" y="591"/>
      <point x="434" y="621" type="curve"/>
      <point x="424" y="664"/>
      <point x="372" y="681"/>
      <point x="319" y="681" type="curve" smooth="yes"/>
      <point x="265" y="681"/>
      <point x="207" y="662"/>
      <point x="164" y="620" type="curve" smooth="yes"/>
      <point x="115" y="571"/>
      <point x="98" y="522"/>
      <point x="89" y="425" type="curve"/>
      <point x="131" y="447" type="line"/>
      <point x="23" y="433" type="line"/>
      <point x="23" y="383" type="line"/>
      <point x="89" y="383" type="line"/>
      <point x="89" y="193" type="line" smooth="yes"/>
      <point x="89" y="128"/>
      <point x="88" y="64"/>
    </contour>
    <contour>
      <point x="29" y="0" type="line"/>
      <point x="282" y="0" type="line"/>
      <point x="282" y="39" type="line"/>
      <point x="194" y="57" type="line"/>
      <point x="124" y="57" type="line"/>
      <point x="29" y="39" type="line"/>
    </contour>
    <contour>
      <point x="150" y="383" type="line"/>
      <point x="318" y="383" type="line"/>
      <point x="318" y="441" type="line"/>
      <point x="150" y="441" type="line"/>
    </contour>
    <contour>
      <point x="318" y="0" type="line"/>
      <point x="556" y="0" type="line"/>
      <point x="556" y="39" type="line"/>
      <point x="461" y="57" type="line"/>
      <point x="408" y="57" type="line"/>
      <point x="318" y="39" type="line"/>
    </contour>
    <contour>
      <point x="372" y="0" type="curve"/>
      <point x="501" y="0" type="line"/>
      <point x="499" y="64"/>
      <point x="498" y="128"/>
      <point x="498" y="193" type="curve" smooth="yes"/>
      <point x="498" y="534" type="line"/>
      <point x="502" y="663" type="line"/>
      <point x="488" y="672" type="line"/>
      <point x="375" y="634" type="line"/>
      <point x="375" y="193" type="line" smooth="yes"/>
      <point x="375" y="128"/>
      <point x="374" y="64"/>
    </contour>
  </outline>
</glyph>
<glyph name=".notdef" format="2">
  <advance width="1000"/>
  <outline>
    <contour>
      <point x="746" y="52" type="line"/>
      <point x="746" y="687" type="line"/>
      <point x="252" y="687" type="line"/>
      <point x="252" y="52" type="line"/>
    </contour>
    <contour>
      <point x="798" y="0" type="line"/>
      <point x="200" y="0" type="line"/>
      <point x="200" y="739" type="line"/>
      <point x="798" y="739" type="line"/>
    </contour>
  </outline>
</glyph>
